<?xml version="1.0" encoding="UTF-8" standalone="no"?>
<!DOCTYPE svg PUBLIC "-//W3C//DTD SVG 1.1//EN" "http://www.w3.org/Graphics/SVG/1.1/DTD/svg11.dtd">
<!-- Created with Vectornator (http://vectornator.io/) -->
<svg height="100%" stroke-miterlimit="10" style="fill-rule:nonzero;clip-rule:evenodd;stroke-linecap:round;stroke-linejoin:round;" version="1.1" viewBox="0 0 32 32" width="100%" xml:space="preserve" xmlns="http://www.w3.org/2000/svg" xmlns:vectornator="http://vectornator.io" xmlns:xlink="http://www.w3.org/1999/xlink">
<defs/>
<g id="Layer-1" vectornator:layerName="Layer 1" visibility="hidden">
<g opacity="1" vectornator:layerName="Group 1">
<path d="M26.6172 2.92182L23.4566 3.96512C22.1801 4.38859 20.7931 4.89183 20.161 5.90445C19.6516 6.72069 19.7682 7.68421 19.9032 8.56796L20.2837 11.1578C20.2837 11.1578 20.1916 11.5138 19.9891 11.8084C17.5956 15.2267 15.1347 18.9397 12.7473 22.3642C12.7657 22.7263 12.6123 22.5483 13.1278 23.0884C14.4228 21.2472 15.6072 19.8234 16.8837 17.97C18.0007 16.3498 19.5534 14.0177 20.6581 12.3852C20.744 16.3007 19.2649 21.1797 16.3744 24.4078C15.3065 25.5923 14.0054 26.7154 12.3423 27.2309C10.6853 27.7526 8.61092 27.5009 7.63512 26.3472C7.40191 26.0649 7.23007 25.7212 7.29144 25.3714C7.37943 24.9757 7.71582 24.6842 8.11995 24.6533C8.54955 24.6226 8.93618 25.0031 8.75207 25.3284C8.54955 25.6844 8.9546 26.114 9.42102 26.114C9.87158 26.1023 10.2699 25.8182 10.4275 25.3959C10.5502 25.0154 10.4275 24.6226 10.225 24.2851C9.6973 23.4917 8.79574 23.029 7.8435 23.0628C6.89126 23.0965 6.02476 23.622 5.55464 24.4508C5.18641 25.1566 5.23551 25.9728 5.56691 26.6724C6.21131 28.0226 7.8806 28.9063 9.64809 29.0536C11.4156 29.2071 13.2444 28.6854 14.7419 27.8262C16.179 26.9732 17.4428 25.8572 18.4671 24.5367C21.3516 20.9649 22.7754 16.583 22.0573 12.4589C22.0266 12.2993 21.8794 11.3788 21.8241 10.8203C21.8241 10.8203 21.8364 10.8203 21.8487 10.8019C23.4443 8.17518 26.6786 3.32687 26.7031 3.28391L26.6111 2.91568L26.6172 2.92182ZM24.101 5.46258C24.101 5.46258 22.579 8.16905 21.6646 9.41488C21.6155 9.35351 21.683 9.64809 21.4068 9.21849C20.9158 8.45749 21.1797 7.03368 21.775 6.25427C22.2046 5.68352 24.1071 5.45644 24.1071 5.45644L24.101 5.46258Z" fill="#ffffff" fill-rule="nonzero" opacity="1" stroke="none" vectornator:layerName="path"/>
<path d="M26.6111 2.90954L25.5248 3.27777L23.5609 3.9283C22.8552 4.16151 22.1494 4.40086 21.4927 4.75068L21.4559 4.77522C21.818 4.57884 22.1985 4.41313 22.5728 4.27198C22.9963 4.11242 23.4259 3.9774 23.8494 3.83625L25.4327 3.31459L26.6172 2.92795L26.6172 2.91568C26.6172 2.91568 26.6172 2.90954 26.6111 2.91568L26.6111 2.90954ZM21.4559 4.77522L21.2165 4.92251C21.2963 4.87342 21.3761 4.81818 21.462 4.77522L21.4559 4.77522ZM21.2165 4.92251C20.9097 5.10663 20.6151 5.32756 20.3819 5.5976C20.0137 6.02719 19.8296 6.54271 19.7927 7.09505C19.7559 7.61671 19.8296 8.13836 19.9032 8.65388L20.2714 11.1578L20.2346 11.256C20.1512 11.5079 20.0268 11.7443 19.8664 11.9556C19.1057 13.0434 18.3488 14.1338 17.5956 15.2267C16.2639 17.1415 14.9567 19.0686 13.6188 20.9711L12.9744 21.8916L12.7535 22.2108L12.6675 22.3274L12.6675 22.4685C12.6614 22.5299 12.643 22.5974 12.6675 22.6649C12.6921 22.7754 12.821 22.8858 12.9008 22.9718L13.0051 23.0822L13.0665 23.1436C13.1769 23.205 13.2628 23.027 13.3119 22.9595L13.3488 22.9104L13.4286 22.7938L13.5145 22.6833L13.5943 22.5728C14.0423 21.9591 14.5087 21.3454 14.969 20.744C15.4292 20.1426 15.8895 19.5411 16.3375 18.9335C17.3011 17.6079 18.2155 16.2455 19.1361 14.8892L20.2285 13.2813L20.4985 12.8823L20.4985 13.0051C20.4445 14.5881 20.1972 16.1586 19.762 17.6816C19.0848 20.1511 17.855 22.4343 16.1657 24.3587C15.4335 25.1983 14.5716 25.9152 13.6127 26.4822C13.134 26.7522 12.6123 26.9732 12.0784 27.1204C11.4571 27.289 10.8115 27.3492 10.1697 27.2984C9.72787 27.2616 9.29214 27.1695 8.88095 27.0038C8.45749 26.8381 8.05858 26.5865 7.764 26.2306C7.6211 26.0731 7.51798 25.8837 7.46328 25.6782C7.43259 25.5432 7.43873 25.3959 7.49396 25.267C7.64125 24.9356 8.08313 24.6963 8.4268 24.8927C8.46754 24.9159 8.50474 24.9448 8.53727 24.9786C8.58637 25.0216 8.62933 25.0891 8.62319 25.1627C8.62319 25.2241 8.58023 25.2854 8.56182 25.3407C8.53409 25.413 8.52156 25.4903 8.525 25.5678C8.54955 25.9483 8.91777 26.2183 9.27373 26.2674C9.80331 26.3215 10.3096 26.0364 10.538 25.5555C10.5993 25.4205 10.63 25.267 10.6362 25.1136C10.6484 24.684 10.4398 24.2728 10.182 23.9476C9.53262 23.17 8.52799 22.7825 7.52465 22.9227C6.74949 23.0435 6.05411 23.4674 5.59146 24.101C5.24916 24.5861 5.09833 25.1807 5.168 25.7703C5.20482 26.1385 5.31529 26.4883 5.48713 26.8136C5.98308 27.68 6.76377 28.3479 7.69649 28.7038C9.47625 29.4464 11.5076 29.2684 13.2813 28.6056C15.1412 27.8647 16.7837 26.6656 18.0559 25.1197C20.05 22.8567 21.415 20.1098 22.0144 17.1538C22.2844 15.7361 22.3274 14.2693 22.1248 12.8455C22.0635 12.3791 21.9775 11.925 21.91 11.4585L21.8548 11.0474L21.8487 10.9676L21.8364 10.8939C21.8367 10.8714 21.8367 10.8489 21.8364 10.8264L21.8364 10.8203L21.8548 10.8019L21.9039 10.7221L22.0082 10.5502C22.4562 9.81761 22.9145 9.09131 23.3829 8.37157C24.193 7.10733 25.0093 5.84922 25.8378 4.59111L25.4696 5.15572C24.3915 6.79323 23.3277 8.44008 22.2783 10.0961L21.8425 10.7957L21.818 10.8203C21.8057 10.8326 21.818 10.8816 21.818 10.8939L21.8303 10.9676L21.8794 11.3788C21.9407 11.8268 22.0205 12.2748 22.088 12.7228C22.3003 14.1916 22.2608 15.6859 21.9714 17.1415C21.3587 20.0816 19.9781 22.8068 17.97 25.04C16.6995 26.5566 15.0652 27.7263 13.2199 28.4399C11.4954 29.0659 9.51307 29.2193 7.79468 28.4767C6.97963 28.1561 6.28612 27.5871 5.8124 26.8504C5.62828 26.5374 5.50554 26.1937 5.45644 25.8317C5.36764 25.2496 5.52309 24.6567 5.88604 24.193C6.32952 23.641 6.97415 23.2878 7.67808 23.2111C8.54008 23.1298 9.38623 23.4816 9.93653 24.1501C10.1801 24.4237 10.3135 24.778 10.3109 25.1443C10.3048 25.2548 10.2741 25.3591 10.225 25.4512C10.047 25.7826 9.61127 26.028 9.24304 25.9176C9.12279 25.8823 9.01589 25.8117 8.93618 25.715L8.89323 25.6291C8.86934 25.5701 8.86934 25.5041 8.89323 25.445C8.89936 25.4082 8.91777 25.3836 8.93005 25.353C8.96073 25.2732 8.97914 25.1934 8.96687 25.1075C8.93618 24.7515 8.5741 24.5122 8.24269 24.4815C7.70765 24.4517 7.23079 24.8165 7.1196 25.3407C7.07664 25.6107 7.14415 25.893 7.27303 26.1262C7.57988 26.697 8.16905 27.0959 8.75821 27.3352C9.20008 27.5071 9.67878 27.6053 10.1452 27.6421C10.943 27.7157 11.7408 27.6176 12.5018 27.3659C13.987 26.875 15.239 25.8807 16.2946 24.7454C17.6544 23.252 18.7241 21.5183 19.4491 19.6332C20.3396 17.3862 20.8017 14.9925 20.8115 12.5755C20.8115 12.4957 20.8238 12.3546 20.7624 12.2932C20.7256 12.2686 20.701 12.2564 20.6519 12.2502C20.5476 12.2502 20.474 12.3914 20.4249 12.465L20.388 12.5264L20.3512 12.5755L20.2837 12.686L19.2404 14.2448L17.565 16.7487C17.1047 17.4361 16.6444 18.1234 16.1534 18.8047C15.687 19.4675 15.1899 20.1241 14.6989 20.7808C14.3246 21.2841 13.9441 21.7934 13.5758 22.309L13.1831 22.8674L13.1217 22.9595L12.913 22.7447C12.8823 22.7079 12.8333 22.671 12.821 22.6219C12.8026 22.579 12.821 22.5176 12.821 22.4747L12.821 22.3826L13.1033 21.9653L14.0729 20.5537C15.5029 18.4364 16.9206 16.3191 18.3567 14.2141C18.8476 13.4838 19.3509 12.7535 19.8541 12.0293C19.9155 11.9372 19.9891 11.8452 20.0505 11.7408C20.1496 11.5781 20.226 11.4026 20.2776 11.2192L20.296 11.1578L20.1732 10.3477L19.8909 8.45749C19.8296 8.00948 19.7682 7.55533 19.805 7.09505C19.8418 6.51203 20.0382 5.99037 20.4371 5.5485C20.6581 5.30302 20.9281 5.10049 21.2165 4.92251ZM24.1071 5.45644L24.0948 5.45644L24.1071 5.45644L24.0948 5.46258L24.0826 5.48713L24.0212 5.5976C23.7246 6.10755 23.4135 6.60895 23.0884 7.10119C22.8429 7.46942 22.579 7.83764 22.3151 8.19973L21.7627 8.97914L21.6032 9.19394C21.235 8.66615 21.2779 7.89901 21.4191 7.30371C21.4858 6.9455 21.6258 6.60493 21.8303 6.30336C21.953 6.13153 22.1494 6.01492 22.3335 5.93514C22.6588 5.77557 23.0086 5.67738 23.3584 5.5976C23.521 5.56001 23.6848 5.52726 23.8494 5.4994C23.3497 5.58036 22.8557 5.6931 22.3703 5.83694C22.1985 5.89831 22.0205 5.97196 21.8732 6.08243C21.6768 6.21744 21.5295 6.44452 21.4129 6.65318C21.1306 7.14415 20.9711 7.72717 20.9833 8.29793C20.9833 8.70911 21.0815 9.08348 21.3209 9.42102C21.3822 9.5008 21.462 9.6174 21.5725 9.63582L21.64 9.63582C21.6707 9.62968 21.7014 9.6174 21.7259 9.59899C21.7382 9.59286 21.7382 9.57444 21.7505 9.56217C21.7996 9.53762 21.8303 9.48239 21.8609 9.43943L21.9223 9.35351L21.9837 9.26759L22.0451 9.17553L22.1678 8.98528C22.5237 8.41453 22.8306 7.81309 23.1497 7.21779C23.4441 6.65774 23.749 6.10326 24.0642 5.55464L24.101 5.49327L24.1133 5.46872L24.1133 5.46258L24.1071 5.45644ZM24.0212 5.46872L24.0948 5.46872L24.0948 5.46258L24.0212 5.46872ZM21.8057 9.47625L21.8057 9.48239L21.7812 9.51921L21.775 9.51921L21.8057 9.47625ZM21.7075 9.55603C21.6707 9.56831 21.6339 9.56831 21.5909 9.56217L21.7075 9.56217L21.7075 9.55603Z" fill="#ffffff" fill-rule="nonzero" opacity="1" stroke="none" vectornator:layerName="path"/>
</g>
</g>
<g id="Layer-1-copy" vectornator:layerName="Layer 1 copy">
<path d="M0.773006 16C0.773006 7.59036 7.59036 0.773006 16 0.773006C24.4096 0.773006 31.227 7.59036 31.227 16C31.227 24.4096 24.4096 31.227 16 31.227C7.59036 31.227 0.773006 24.4096 0.773006 16Z" fill="#000000" fill-rule="nonzero" opacity="1" stroke="none" vectornator:layerName="Oval 1"/>
<g opacity="1" vectornator:layerName="Group 1">
<path d="M23.6511 6.60514L21.3889 7.35186C20.4753 7.65494 19.4826 8.01513 19.0302 8.73989C18.6656 9.32409 18.7491 10.0137 18.8457 10.6462L19.118 12.4999C19.118 12.4999 19.0521 12.7546 18.9072 12.9655C17.1941 15.4121 15.4327 18.0695 13.7241 20.5205C13.7372 20.7797 13.6274 20.6523 13.9964 21.0389C14.9232 19.7211 15.771 18.702 16.6846 17.3755C17.484 16.2159 18.5953 14.5468 19.386 13.3784C19.4475 16.1808 18.3889 19.6728 16.32 21.9832C15.5557 22.831 14.6245 23.6348 13.4341 24.0038C12.2482 24.3771 10.7635 24.197 10.0651 23.3713C9.8982 23.1692 9.77521 22.9232 9.81913 22.6729C9.88211 22.3897 10.1229 22.181 10.4121 22.1589C10.7196 22.137 10.9963 22.4093 10.8645 22.6421C10.7196 22.8969 11.0095 23.2043 11.3433 23.2043C11.6658 23.196 11.9509 22.9926 12.0637 22.6904C12.1515 22.4181 12.0637 22.137 11.9187 21.8954C11.5411 21.3275 10.8958 20.9963 10.2143 21.0205C9.53271 21.0447 8.91254 21.4208 8.57606 22.014C8.31251 22.5191 8.34765 23.1033 8.58484 23.6041C9.04605 24.5704 10.2408 25.2029 11.5058 25.3083C12.7709 25.4182 14.0798 25.0448 15.1516 24.4299C16.1802 23.8193 17.0847 23.0206 17.8179 22.0755C19.8823 19.5191 20.9014 16.3828 20.3875 13.4311C20.3655 13.3169 20.2601 12.658 20.2205 12.2583C20.2205 12.2583 20.2293 12.2583 20.2381 12.2451C21.3802 10.3651 23.695 6.89504 23.7126 6.86429L23.6467 6.60075L23.6511 6.60514ZM21.8502 8.42363C21.8502 8.42363 20.7608 10.3607 20.1063 11.2524C20.0712 11.2085 20.1195 11.4193 19.9219 11.1118C19.5705 10.5672 19.7593 9.5481 20.1854 8.99026C20.4929 8.58176 21.8545 8.41923 21.8545 8.41923L21.8502 8.42363Z" fill="#ffffff" fill-rule="nonzero" opacity="1" stroke="none" vectornator:layerName="path"/>
<path d="M23.6467 6.59635L22.8692 6.8599L21.4636 7.32551C20.9585 7.49242 20.4533 7.66373 19.9833 7.9141L19.957 7.93167C20.2161 7.79111 20.4885 7.67251 20.7564 7.57148C21.0595 7.45728 21.367 7.36065 21.6701 7.25962L22.8033 6.88626L23.6511 6.60953L23.6511 6.60075C23.6511 6.60075 23.6511 6.59635 23.6467 6.60075L23.6467 6.59635ZM19.957 7.93167L19.7857 8.03709C19.8428 8.00195 19.8999 7.96242 19.9614 7.93167L19.957 7.93167ZM19.7857 8.03709C19.5661 8.16886 19.3552 8.32699 19.1883 8.52026C18.9248 8.82774 18.793 9.19671 18.7666 9.59203C18.7403 9.96539 18.793 10.3388 18.8457 10.7077L19.1092 12.4999L19.0829 12.5701C19.0232 12.7504 18.9341 12.9196 18.8193 13.0709C18.2749 13.8494 17.7332 14.6298 17.1941 15.4121C16.2409 16.7825 15.3053 18.1618 14.3478 19.5234L13.8866 20.1823L13.7284 20.4107L13.667 20.4942L13.667 20.5952C13.6626 20.6391 13.6494 20.6875 13.667 20.7358C13.6845 20.8148 13.7768 20.8939 13.8339 20.9554L13.9085 21.0345L13.9525 21.0784C14.0315 21.1223 14.093 20.9949 14.1282 20.9466L14.1545 20.9115L14.2116 20.828L14.2731 20.7489L14.3302 20.6699C14.6509 20.2306 14.9847 19.7914 15.3141 19.3609C15.6436 18.9305 15.973 18.5 16.2937 18.0651C16.9833 17.1164 17.6378 16.1412 18.2966 15.1705L19.0785 14.0197L19.2718 13.7341L19.2718 13.822C19.2331 14.955 19.0561 16.079 18.7447 17.1691C18.2599 18.9366 17.3797 20.5707 16.1707 21.9481C15.6466 22.549 15.0297 23.0621 14.3434 23.4679C14.0008 23.6612 13.6274 23.8193 13.2453 23.9247C12.8006 24.0453 12.3385 24.0884 11.8792 24.0521C11.5629 24.0257 11.2511 23.9599 10.9568 23.8413C10.6537 23.7227 10.3682 23.5426 10.1574 23.2878C10.0551 23.1751 9.98128 23.0395 9.94212 22.8925C9.92016 22.7958 9.92455 22.6904 9.96408 22.5982C10.0695 22.361 10.3858 22.1897 10.6317 22.3302C10.6609 22.3469 10.6875 22.3676 10.7108 22.3917C10.7459 22.4225 10.7767 22.4708 10.7723 22.5235C10.7723 22.5674 10.7416 22.6114 10.7284 22.6509C10.7085 22.7027 10.6996 22.758 10.702 22.8134C10.7196 23.0858 10.9831 23.279 11.2379 23.3142C11.6169 23.3529 11.9793 23.1488 12.1428 22.8046C12.1867 22.708 12.2086 22.5982 12.213 22.4884C12.2218 22.1809 12.0725 21.8866 11.888 21.6538C11.4232 21.0973 10.7042 20.82 9.98605 20.9203C9.43125 21.0068 8.93354 21.3101 8.60241 21.7636C8.35742 22.1108 8.24947 22.5364 8.29933 22.9584C8.32569 23.2219 8.40475 23.4723 8.52774 23.7051C8.88271 24.3252 9.44147 24.8032 10.109 25.058C11.3829 25.5895 12.8368 25.4621 14.1062 24.9877C15.4374 24.4574 16.613 23.5992 17.5236 22.4928C18.9508 20.8731 19.9277 18.9071 20.3567 16.7913C20.55 15.7767 20.5807 14.7268 20.4358 13.7078C20.3918 13.374 20.3304 13.0489 20.282 12.7151L20.2425 12.4208L20.2381 12.3637L20.2293 12.311C20.2295 12.2949 20.2295 12.2788 20.2293 12.2627L20.2293 12.2583L20.2425 12.2451L20.2776 12.188L20.3523 12.065C20.673 11.5406 21.001 11.0208 21.3362 10.5057C21.916 9.60081 22.5002 8.70035 23.0932 7.79989L22.8297 8.204C22.0581 9.37601 21.2967 10.5547 20.5456 11.74L20.2337 12.2407L20.2161 12.2583C20.2074 12.2671 20.2161 12.3022 20.2161 12.311L20.2249 12.3637L20.2601 12.658C20.304 12.9786 20.3611 13.2993 20.4094 13.6199C20.5613 14.6712 20.5331 15.7407 20.326 16.7825C19.8874 18.8868 18.8993 20.8373 17.4621 22.4357C16.5527 23.5211 15.383 24.3584 14.0623 24.8691C12.828 25.3171 11.4092 25.4269 10.1793 24.8955C9.59596 24.6659 9.0996 24.2587 8.76054 23.7314C8.62877 23.5074 8.54092 23.2614 8.50578 23.0023C8.44222 22.5857 8.55348 22.1613 8.81325 21.8295C9.13066 21.4344 9.59204 21.1816 10.0959 21.1267C10.7128 21.0685 11.3184 21.3203 11.7123 21.7988C11.8866 21.9946 11.9821 22.2481 11.9802 22.5103C11.9758 22.5894 11.9539 22.6641 11.9187 22.73C11.7914 22.9672 11.4795 23.1429 11.2159 23.0638C11.1299 23.0385 11.0534 22.988 10.9963 22.9188L10.9656 22.8573C10.9485 22.8151 10.9485 22.7678 10.9656 22.7256C10.97 22.6992 10.9831 22.6816 10.9919 22.6597C11.0139 22.6026 11.0271 22.5455 11.0183 22.484C10.9963 22.2292 10.7372 22.0579 10.5 22.0359C10.117 22.0146 9.77572 22.2757 9.69614 22.6509C9.66539 22.8442 9.71371 23.0462 9.80595 23.2131C10.0256 23.6216 10.4473 23.9071 10.8689 24.0785C11.1852 24.2014 11.5278 24.2717 11.8616 24.2981C12.4327 24.3508 13.0037 24.2805 13.5484 24.1004C14.6113 23.749 15.5074 23.0374 16.2629 22.2248C17.2362 21.156 18.0018 19.9151 18.5206 18.5659C19.158 16.9577 19.4888 15.2444 19.4958 13.5145C19.4958 13.4574 19.5046 13.3564 19.4606 13.3125C19.4343 13.2949 19.4167 13.2861 19.3816 13.2817C19.3069 13.2817 19.2542 13.3827 19.2191 13.4355L19.1927 13.4794L19.1663 13.5145L19.118 13.5936L18.3713 14.7093L17.1722 16.5014C16.8427 16.9934 16.5133 17.4853 16.1619 17.9729C15.8281 18.4473 15.4723 18.9173 15.1209 19.3873C14.8529 19.7475 14.5806 20.112 14.317 20.481L14.0359 20.8807L13.992 20.9466L13.8426 20.7929C13.8207 20.7665 13.7855 20.7402 13.7768 20.705C13.7636 20.6743 13.7768 20.6303 13.7768 20.5996L13.7768 20.5337L13.9788 20.235L14.6728 19.2248C15.6963 17.7093 16.7109 16.1939 17.7388 14.6873C18.0902 14.1646 18.4504 13.6419 18.8106 13.1236C18.8545 13.0577 18.9072 12.9918 18.9511 12.9171C19.022 12.8007 19.0767 12.6751 19.1136 12.5438L19.1268 12.4999L19.039 11.92L18.8369 10.5672C18.793 10.2465 18.7491 9.92147 18.7754 9.59203C18.8018 9.17474 18.9423 8.80138 19.2278 8.48512C19.386 8.30942 19.5792 8.16447 19.7857 8.03709ZM21.8545 8.41923L21.8458 8.41923L21.8545 8.41923L21.8458 8.42363L21.837 8.4412L21.7931 8.52026C21.5808 8.88525 21.3581 9.24412 21.1254 9.59642C20.9497 9.85997 20.7608 10.1235 20.5719 10.3827L20.1766 10.9405L20.0624 11.0943C19.7989 10.7165 19.8296 10.1674 19.9306 9.74137C19.9784 9.48499 20.0786 9.24124 20.2249 9.0254C20.3128 8.90241 20.4533 8.81895 20.5851 8.76185C20.8179 8.64764 21.0683 8.57736 21.3187 8.52026C21.4351 8.49336 21.5523 8.46992 21.6701 8.44998C21.3124 8.50793 20.9588 8.58862 20.6115 8.69157C20.4885 8.73549 20.3611 8.7882 20.2557 8.86727C20.1151 8.9639 20.0097 9.12643 19.9262 9.27577C19.7242 9.62717 19.61 10.0445 19.6188 10.453C19.6188 10.7473 19.6891 11.0152 19.8604 11.2568C19.9043 11.3139 19.9614 11.3973 20.0404 11.4105L20.0888 11.4105C20.1107 11.4061 20.1327 11.3973 20.1503 11.3842C20.159 11.3798 20.159 11.3666 20.1678 11.3578C20.203 11.3402 20.2249 11.3007 20.2469 11.27L20.2908 11.2085L20.3347 11.147L20.3787 11.0811L20.4665 10.9449C20.7213 10.5364 20.9409 10.1059 21.1693 9.67988C21.38 9.27903 21.5982 8.88217 21.8238 8.48951L21.8502 8.44559L21.8589 8.42802L21.8589 8.42363L21.8545 8.41923ZM21.7931 8.42802L21.8458 8.42802L21.8458 8.42363L21.7931 8.42802ZM20.2074 11.2963L20.2074 11.3007L20.1898 11.3271L20.1854 11.3271L20.2074 11.2963ZM20.1371 11.3534C20.1107 11.3622 20.0844 11.3622 20.0536 11.3578L20.1371 11.3578L20.1371 11.3534Z" fill="#ffffff" fill-rule="nonzero" opacity="1" stroke="none" vectornator:layerName="path"/>
</g>
</g>
<g id="Layer-2" vectornator:layerName="Layer 2"/>
</svg>
