<?xml version="1.0" encoding="UTF-8" standalone="no"?>
<!DOCTYPE svg PUBLIC "-//W3C//DTD SVG 1.1//EN" "http://www.w3.org/Graphics/SVG/1.1/DTD/svg11.dtd">
<!-- Created with Vectornator (http://vectornator.io/) -->
<svg height="100%" stroke-miterlimit="10" style="fill-rule:nonzero;clip-rule:evenodd;stroke-linecap:round;stroke-linejoin:round;" version="1.1" viewBox="0 0 32 32" width="100%" xml:space="preserve" xmlns="http://www.w3.org/2000/svg" xmlns:vectornator="http://vectornator.io" xmlns:xlink="http://www.w3.org/1999/xlink">
<defs/>
<path d="M0 0L32 0L32 32L0 32L0 0Z" fill="#000000" fill-rule="nonzero" opacity="1" stroke="none"/>
<g id="Layer-1" vectornator:layerName="Layer 1">
<g opacity="1" vectornator:layerName="Group 1">
<path d="M26.6172 2.92182L23.4566 3.96512C22.1801 4.38859 20.7931 4.89183 20.161 5.90445C19.6516 6.72069 19.7682 7.68421 19.9032 8.56796L20.2837 11.1578C20.2837 11.1578 20.1916 11.5138 19.9891 11.8084C17.5956 15.2267 15.1347 18.9397 12.7473 22.3642C12.7657 22.7263 12.6123 22.5483 13.1278 23.0884C14.4228 21.2472 15.6072 19.8234 16.8837 17.97C18.0007 16.3498 19.5534 14.0177 20.6581 12.3852C20.744 16.3007 19.2649 21.1797 16.3744 24.4078C15.3065 25.5923 14.0054 26.7154 12.3423 27.2309C10.6853 27.7526 8.61092 27.5009 7.63512 26.3472C7.40191 26.0649 7.23007 25.7212 7.29144 25.3714C7.37943 24.9757 7.71582 24.6842 8.11995 24.6533C8.54955 24.6226 8.93618 25.0031 8.75207 25.3284C8.54955 25.6844 8.9546 26.114 9.42102 26.114C9.87158 26.1023 10.2699 25.8182 10.4275 25.3959C10.5502 25.0154 10.4275 24.6226 10.225 24.2851C9.6973 23.4917 8.79574 23.029 7.8435 23.0628C6.89126 23.0965 6.02476 23.622 5.55464 24.4508C5.18641 25.1566 5.23551 25.9728 5.56691 26.6724C6.21131 28.0226 7.8806 28.9063 9.64809 29.0536C11.4156 29.2071 13.2444 28.6854 14.7419 27.8262C16.179 26.9732 17.4428 25.8572 18.4671 24.5367C21.3516 20.9649 22.7754 16.583 22.0573 12.4589C22.0266 12.2993 21.8794 11.3788 21.8241 10.8203C21.8241 10.8203 21.8364 10.8203 21.8487 10.8019C23.4443 8.17518 26.6786 3.32687 26.7031 3.28391L26.6111 2.91568L26.6172 2.92182ZM24.101 5.46258C24.101 5.46258 22.579 8.16905 21.6646 9.41488C21.6155 9.35351 21.683 9.64809 21.4068 9.21849C20.9158 8.45749 21.1797 7.03368 21.775 6.25427C22.2046 5.68352 24.1071 5.45644 24.1071 5.45644L24.101 5.46258Z" fill="#ffffff" fill-rule="nonzero" opacity="1" stroke="none" vectornator:layerName="path"/>
<path d="M26.6111 2.90954L25.5248 3.27777L23.5609 3.9283C22.8552 4.16151 22.1494 4.40086 21.4927 4.75068L21.4559 4.77522C21.818 4.57884 22.1985 4.41313 22.5728 4.27198C22.9963 4.11242 23.4259 3.9774 23.8494 3.83625L25.4327 3.31459L26.6172 2.92795L26.6172 2.91568C26.6172 2.91568 26.6172 2.90954 26.6111 2.91568L26.6111 2.90954ZM21.4559 4.77522L21.2165 4.92251C21.2963 4.87342 21.3761 4.81818 21.462 4.77522L21.4559 4.77522ZM21.2165 4.92251C20.9097 5.10663 20.6151 5.32756 20.3819 5.5976C20.0137 6.02719 19.8296 6.54271 19.7927 7.09505C19.7559 7.61671 19.8296 8.13836 19.9032 8.65388L20.2714 11.1578L20.2346 11.256C20.1512 11.5079 20.0268 11.7443 19.8664 11.9556C19.1057 13.0434 18.3488 14.1338 17.5956 15.2267C16.2639 17.1415 14.9567 19.0686 13.6188 20.9711L12.9744 21.8916L12.7535 22.2108L12.6675 22.3274L12.6675 22.4685C12.6614 22.5299 12.643 22.5974 12.6675 22.6649C12.6921 22.7754 12.821 22.8858 12.9008 22.9718L13.0051 23.0822L13.0665 23.1436C13.1769 23.205 13.2628 23.027 13.3119 22.9595L13.3488 22.9104L13.4286 22.7938L13.5145 22.6833L13.5943 22.5728C14.0423 21.9591 14.5087 21.3454 14.969 20.744C15.4292 20.1426 15.8895 19.5411 16.3375 18.9335C17.3011 17.6079 18.2155 16.2455 19.1361 14.8892L20.2285 13.2813L20.4985 12.8823L20.4985 13.0051C20.4445 14.5881 20.1972 16.1586 19.762 17.6816C19.0848 20.1511 17.855 22.4343 16.1657 24.3587C15.4335 25.1983 14.5716 25.9152 13.6127 26.4822C13.134 26.7522 12.6123 26.9732 12.0784 27.1204C11.4571 27.289 10.8115 27.3492 10.1697 27.2984C9.72787 27.2616 9.29214 27.1695 8.88095 27.0038C8.45749 26.8381 8.05858 26.5865 7.764 26.2306C7.6211 26.0731 7.51798 25.8837 7.46328 25.6782C7.43259 25.5432 7.43873 25.3959 7.49396 25.267C7.64125 24.9356 8.08313 24.6963 8.4268 24.8927C8.46754 24.9159 8.50474 24.9448 8.53727 24.9786C8.58637 25.0216 8.62933 25.0891 8.62319 25.1627C8.62319 25.2241 8.58023 25.2854 8.56182 25.3407C8.53409 25.413 8.52156 25.4903 8.525 25.5678C8.54955 25.9483 8.91777 26.2183 9.27373 26.2674C9.80331 26.3215 10.3096 26.0364 10.538 25.5555C10.5993 25.4205 10.63 25.267 10.6362 25.1136C10.6484 24.684 10.4398 24.2728 10.182 23.9476C9.53262 23.17 8.52799 22.7825 7.52465 22.9227C6.74949 23.0435 6.05411 23.4674 5.59146 24.101C5.24916 24.5861 5.09833 25.1807 5.168 25.7703C5.20482 26.1385 5.31529 26.4883 5.48713 26.8136C5.98308 27.68 6.76377 28.3479 7.69649 28.7038C9.47625 29.4464 11.5076 29.2684 13.2813 28.6056C15.1412 27.8647 16.7837 26.6656 18.0559 25.1197C20.05 22.8567 21.415 20.1098 22.0144 17.1538C22.2844 15.7361 22.3274 14.2693 22.1248 12.8455C22.0635 12.3791 21.9775 11.925 21.91 11.4585L21.8548 11.0474L21.8487 10.9676L21.8364 10.8939C21.8367 10.8714 21.8367 10.8489 21.8364 10.8264L21.8364 10.8203L21.8548 10.8019L21.9039 10.7221L22.0082 10.5502C22.4562 9.81761 22.9145 9.09131 23.3829 8.37157C24.193 7.10733 25.0093 5.84922 25.8378 4.59111L25.4696 5.15572C24.3915 6.79323 23.3277 8.44008 22.2783 10.0961L21.8425 10.7957L21.818 10.8203C21.8057 10.8326 21.818 10.8816 21.818 10.8939L21.8303 10.9676L21.8794 11.3788C21.9407 11.8268 22.0205 12.2748 22.088 12.7228C22.3003 14.1916 22.2608 15.6859 21.9714 17.1415C21.3587 20.0816 19.9781 22.8068 17.97 25.04C16.6995 26.5566 15.0652 27.7263 13.2199 28.4399C11.4954 29.0659 9.51307 29.2193 7.79468 28.4767C6.97963 28.1561 6.28612 27.5871 5.8124 26.8504C5.62828 26.5374 5.50554 26.1937 5.45644 25.8317C5.36764 25.2496 5.52309 24.6567 5.88604 24.193C6.32952 23.641 6.97415 23.2878 7.67808 23.2111C8.54008 23.1298 9.38623 23.4816 9.93653 24.1501C10.1801 24.4237 10.3135 24.778 10.3109 25.1443C10.3048 25.2548 10.2741 25.3591 10.225 25.4512C10.047 25.7826 9.61127 26.028 9.24304 25.9176C9.12279 25.8823 9.01589 25.8117 8.93618 25.715L8.89323 25.6291C8.86934 25.5701 8.86934 25.5041 8.89323 25.445C8.89936 25.4082 8.91777 25.3836 8.93005 25.353C8.96073 25.2732 8.97914 25.1934 8.96687 25.1075C8.93618 24.7515 8.5741 24.5122 8.24269 24.4815C7.70765 24.4517 7.23079 24.8165 7.1196 25.3407C7.07664 25.6107 7.14415 25.893 7.27303 26.1262C7.57988 26.697 8.16905 27.0959 8.75821 27.3352C9.20008 27.5071 9.67878 27.6053 10.1452 27.6421C10.943 27.7157 11.7408 27.6176 12.5018 27.3659C13.987 26.875 15.239 25.8807 16.2946 24.7454C17.6544 23.252 18.7241 21.5183 19.4491 19.6332C20.3396 17.3862 20.8017 14.9925 20.8115 12.5755C20.8115 12.4957 20.8238 12.3546 20.7624 12.2932C20.7256 12.2686 20.701 12.2564 20.6519 12.2502C20.5476 12.2502 20.474 12.3914 20.4249 12.465L20.388 12.5264L20.3512 12.5755L20.2837 12.686L19.2404 14.2448L17.565 16.7487C17.1047 17.4361 16.6444 18.1234 16.1534 18.8047C15.687 19.4675 15.1899 20.1241 14.6989 20.7808C14.3246 21.2841 13.9441 21.7934 13.5758 22.309L13.1831 22.8674L13.1217 22.9595L12.913 22.7447C12.8823 22.7079 12.8333 22.671 12.821 22.6219C12.8026 22.579 12.821 22.5176 12.821 22.4747L12.821 22.3826L13.1033 21.9653L14.0729 20.5537C15.5029 18.4364 16.9206 16.3191 18.3567 14.2141C18.8476 13.4838 19.3509 12.7535 19.8541 12.0293C19.9155 11.9372 19.9891 11.8452 20.0505 11.7408C20.1496 11.5781 20.226 11.4026 20.2776 11.2192L20.296 11.1578L20.1732 10.3477L19.8909 8.45749C19.8296 8.00948 19.7682 7.55533 19.805 7.09505C19.8418 6.51203 20.0382 5.99037 20.4371 5.5485C20.6581 5.30302 20.9281 5.10049 21.2165 4.92251ZM24.1071 5.45644L24.0948 5.45644L24.1071 5.45644L24.0948 5.46258L24.0826 5.48713L24.0212 5.5976C23.7246 6.10755 23.4135 6.60895 23.0884 7.10119C22.8429 7.46942 22.579 7.83764 22.3151 8.19973L21.7627 8.97914L21.6032 9.19394C21.235 8.66615 21.2779 7.89901 21.4191 7.30371C21.4858 6.9455 21.6258 6.60493 21.8303 6.30336C21.953 6.13153 22.1494 6.01492 22.3335 5.93514C22.6588 5.77557 23.0086 5.67738 23.3584 5.5976C23.521 5.56001 23.6848 5.52726 23.8494 5.4994C23.3497 5.58036 22.8557 5.6931 22.3703 5.83694C22.1985 5.89831 22.0205 5.97196 21.8732 6.08243C21.6768 6.21744 21.5295 6.44452 21.4129 6.65318C21.1306 7.14415 20.9711 7.72717 20.9833 8.29793C20.9833 8.70911 21.0815 9.08348 21.3209 9.42102C21.3822 9.5008 21.462 9.6174 21.5725 9.63582L21.64 9.63582C21.6707 9.62968 21.7014 9.6174 21.7259 9.59899C21.7382 9.59286 21.7382 9.57444 21.7505 9.56217C21.7996 9.53762 21.8303 9.48239 21.8609 9.43943L21.9223 9.35351L21.9837 9.26759L22.0451 9.17553L22.1678 8.98528C22.5237 8.41453 22.8306 7.81309 23.1497 7.21779C23.4441 6.65774 23.749 6.10326 24.0642 5.55464L24.101 5.49327L24.1133 5.46872L24.1133 5.46258L24.1071 5.45644ZM24.0212 5.46872L24.0948 5.46872L24.0948 5.46258L24.0212 5.46872ZM21.8057 9.47625L21.8057 9.48239L21.7812 9.51921L21.775 9.51921L21.8057 9.47625ZM21.7075 9.55603C21.6707 9.56831 21.6339 9.56831 21.5909 9.56217L21.7075 9.56217L21.7075 9.55603Z" fill="#ffffff" fill-rule="nonzero" opacity="1" stroke="none" vectornator:layerName="path"/>
</g>
</g>
</svg>
