<?xml version="1.0" encoding="UTF-8" standalone="no"?>
<!DOCTYPE svg PUBLIC "-//W3C//DTD SVG 1.1//EN" "http://www.w3.org/Graphics/SVG/1.1/DTD/svg11.dtd">
<!-- Created with Vectornator (http://vectornator.io/) -->
<svg height="100%" stroke-miterlimit="10" style="fill-rule:nonzero;clip-rule:evenodd;stroke-linecap:round;stroke-linejoin:round;" version="1.1" viewBox="0 0 1280 720" width="100%" xml:space="preserve" xmlns="http://www.w3.org/2000/svg" xmlns:vectornator="http://vectornator.io" xmlns:xlink="http://www.w3.org/1999/xlink">
<defs/>
<g id="Layer-1" vectornator:layerName="Layer 1">
<g opacity="1">
<path d="M608.065 425.339C605.72 426.418 602.808 427.034 600.718 425.561C598.578 424.052 598.211 420.989 598.56 418.363C599.687 409.863 605.923 403.054 611.594 396.606C623.447 383.126 634.107 368.59 643.453 353.254C645.147 350.474 647.057 347.452 650.132 346.446C653.206 345.44 657.333 348.133 656.289 351.214C649.559 371.082 629.994 384.435 622.808 404.144C621.471 407.812 620.58 411.662 618.775 415.124C616.449 419.586 612.613 423.244 608.065 425.339Z" fill="#010102" fill-rule="nonzero" opacity="1" stroke="#010102" stroke-linecap="butt" stroke-linejoin="round" stroke-width="115.142" vectornator:layerName="path"/>
<path d="M855.328 326.223C843.007 336.506 832.31 348.77 823.778 362.395C820.687 367.332 817.855 372.499 816.209 378.083C815.629 380.054 815.227 382.291 816.24 384.057C818.02 387.16 822.618 386.667 825.97 385.368C835.397 381.713 843.578 374.801 848.801 366.078C853.184 358.759 860.114 353.397 865.725 346.977C871.337 340.557 875.824 331.95 873.651 323.762C872.464 319.29 869.434 314.403 871.934 310.472C874.363 306.65 880.659 307.42 883.4 310.957C886.141 314.494 886.151 319.464 885.416 323.925C884.371 330.271 882.062 336.419 878.668 341.896C875.32 347.297 870.855 352.214 869.239 358.353C867.789 363.862 863.135 367.849 858.732 371.456C846.184 381.737 833.328 392.198 818.186 397.837C815.426 398.866 812.42 399.733 809.595 398.974C805.871 397.974 803.384 394.319 802.467 390.548C800.243 381.408 805.391 372.144 810.589 364.228C820.563 349.037 831.708 334.273 846.149 323.303C848.175 321.764 850.555 320.23 853.04 320.64C855.525 321.051 857.283 324.592 855.328 326.223Z" fill="#010102" fill-rule="nonzero" opacity="1" stroke="#010102" stroke-linecap="butt" stroke-linejoin="round" stroke-width="115.142" vectornator:layerName="path"/>
<path d="M1004.46 464.042C1006.68 462.334 1009.66 460.65 1012.05 462.025C1012.88 467.218 1007.64 471.122 1003.49 474.379C992.736 482.816 985.694 495.046 978.926 506.953C965.959 529.763 952.91 552.754 944.528 577.603C943.568 580.451 938.79 579.508 937.774 576.703C936.758 573.899 938.147 570.818 939.504 568.134C949.24 548.867 958.976 529.6 968.713 510.333C971.521 504.777 974.333 499.213 977.595 493.911C984.655 482.434 993.813 472.254 1004.46 464.042Z" fill="#010102" fill-rule="nonzero" opacity="1" stroke="#010102" stroke-linecap="butt" stroke-linejoin="round" stroke-width="115.142" vectornator:layerName="path"/>
<path d="M462.545 425.012C456.162 422.605 449.073 422.065 443.09 418.793C441.471 417.908 439.78 416.487 439.911 414.626C440.075 412.309 442.798 411.214 445.042 410.657C452.828 408.724 460.614 406.791 468.4 404.859C473.896 403.494 481.201 402.91 483.636 408.008C480.159 410.278 476.681 412.549 473.204 414.819C472.658 415.176 472.076 415.576 471.855 416.192C471.43 417.377 472.536 418.495 473.525 419.248C482.737 426.272 491.949 433.295 501.162 440.318C504.138 442.587 507.263 444.923 510.953 445.574C514.615 446.22 518.42 445.1 521.704 443.289C528.308 439.649 533.091 433.435 537.49 427.277C560.203 395.479 578.007 360.477 598.677 327.31C619.347 294.142 643.529 262.179 675.669 240.126C681.97 235.802 690.29 231.827 696.749 235.746C700.596 238.08 702.558 242.756 702.755 247.296C702.952 251.836 701.64 256.313 700.218 260.646C699.424 263.068 698.479 265.633 696.428 267.138C694.377 268.643 690.893 268.367 689.978 266.01C689.42 264.572 689.973 262.956 690.469 261.482C691.967 257.022 692.475 251.12 688.561 248.625C684.477 246.022 679.23 249.327 675.556 252.576C622.763 299.27 590.13 364.095 550.58 422.549C543.541 432.951 536.068 443.38 525.958 450.785C516.007 458.074 501.845 453.607 492.025 446.378C482.206 439.149 473.956 429.316 462.545 425.012Z" fill="#010102" fill-rule="nonzero" opacity="1" stroke="#010102" stroke-linecap="butt" stroke-linejoin="round" stroke-width="115.142" vectornator:layerName="path"/>
<path d="M1153.45 241.104C1163.38 218.437 1178.76 198.632 1194.49 179.528C1196.62 176.94 1198.76 174.357 1201.04 171.908C1202.73 170.104 1204.84 168.237 1207.27 168.474C1211.05 168.842 1212.36 174.201 1210.52 177.577C1208.69 180.954 1205.1 182.89 1202 185.152C1194.89 190.35 1189.85 197.871 1184.96 205.229C1175.6 219.321 1166.24 233.413 1156.88 247.505C1155.86 249.042 1153.21 248.149 1152.6 246.424C1151.99 244.7 1152.7 242.794 1153.45 241.104Z" fill="#010102" fill-rule="nonzero" opacity="1" stroke="#010102" stroke-linecap="butt" stroke-linejoin="round" stroke-width="115.142" vectornator:layerName="path"/>
<path d="M788.143 317.833C775.681 323.364 767.626 335.509 759.481 346.524C747.579 362.619 734.061 377.511 719.206 390.894C718.05 391.935 716.848 393.02 716.256 394.461C715.665 395.898 715.757 397.504 715.719 399.053C715.6 403.928 713.94 408.971 710.328 412.261C706.715 415.551 700.955 416.621 696.914 413.986C692.873 411.351 691.764 404.77 695.298 401.394C701.762 395.219 708.227 389.043 714.691 382.867C722.664 375.251 730.689 367.574 737.108 358.596C737.605 357.901 738.107 357.158 738.195 356.31C738.443 353.902 735.216 352.579 732.928 353.341C730.64 354.102 728.911 356.014 726.762 357.119C724.613 358.224 721.375 358.081 720.532 355.827C719.679 353.548 721.918 351.332 723.94 349.953C741.731 337.823 763.704 330.379 776.091 312.698C795.435 285.088 814.778 257.479 834.121 229.87C838.888 223.066 843.826 216.092 850.743 211.532C857.057 207.37 864.547 205.535 871.886 203.865C874.55 203.258 877.959 202.954 879.367 205.285C880.008 206.347 880.005 207.673 879.948 208.922C879.037 228.92 869.414 247.831 856.525 263.216C843.635 278.6 827.571 290.911 811.543 302.933C804.123 308.499 796.599 314.08 788.143 317.833M801.098 292.302C799.579 294.679 798.029 297.531 798.981 300.161C824.74 280.785 851.712 259.865 863.678 229.869C865.276 225.865 860.215 221.894 856.027 222.77C851.839 223.646 848.853 227.306 846.231 230.729C842.42 235.702 838.609 240.675 834.798 245.648C823.127 260.88 811.44 276.134 801.098 292.302Z" fill="#010102" fill-rule="nonzero" opacity="1" stroke="#010102" stroke-linecap="butt" stroke-linejoin="round" stroke-width="115.142" vectornator:layerName="path"/>
<path d="M1039.65 303.508C1037.36 308.13 1033.47 311.703 1030.08 315.584C1023.9 322.656 1019.23 331.05 1016.47 340.025C1015.37 343.612 1014.52 347.408 1012.22 350.376C1009.92 353.345 1005.6 355.176 1002.41 353.306C999.681 351.713 998.797 348.007 999.51 344.891C1000.22 341.775 1002.18 339.107 1004.09 336.541C1012.88 324.748 1021.66 312.954 1030.45 301.16C1031.63 299.573 1032.88 297.928 1034.64 297.041C1036.4 296.153 1038.83 296.291 1039.96 297.884C1041.1 299.478 1040.52 301.731 1039.65 303.508Z" fill="#010102" fill-rule="nonzero" opacity="1" stroke="#010102" stroke-linecap="butt" stroke-linejoin="round" stroke-width="115.142" vectornator:layerName="path"/>
<path d="M1064.56 239.775C1068.67 239.479 1073 239.496 1076.62 241.433C1080.24 243.371 1082.84 247.791 1081.46 251.72C1080.45 254.616 1077.68 256.466 1075.09 258.1C1072.96 259.442 1070.84 260.784 1068.71 262.126C1066.91 263.262 1064.8 264.444 1062.8 263.787C1060.5 263.034 1059.61 260.295 1059.18 257.898C1058.8 255.77 1058.54 253.62 1058.4 251.46C1058.23 249.017 1058.24 246.484 1059.16 244.206C1060.08 241.928 1062.13 239.949 1064.56 239.775Z" fill="#010102" fill-rule="nonzero" opacity="1" stroke="#010102" stroke-linecap="butt" stroke-linejoin="round" stroke-width="115.142" vectornator:layerName="path"/>
<path d="M1061.02 387.894C1061.85 384.206 1062.68 380.518 1063.52 376.831C1064.41 372.848 1065.44 368.631 1068.33 365.748C1084.2 349.92 1092.15 326.601 1110.42 313.681C1112.04 312.536 1113.95 311.44 1115.88 311.829C1117.8 312.217 1119.14 314.924 1117.67 316.26C1095.12 336.747 1081.48 365.29 1061.02 387.894Z" fill="#010102" fill-rule="nonzero" opacity="1" stroke="#010102" stroke-linecap="butt" stroke-linejoin="round" stroke-width="115.142" vectornator:layerName="path"/>
<path d="M1013.63 235.833C991.593 234.669 969.553 233.505 947.513 232.341C945.495 232.234 943.043 231.821 942.37 229.909C941.556 227.595 944.108 225.497 946.387 224.573C958.259 219.759 971.515 223.134 984.112 224.933C993.258 226.239 1002.54 226.674 1011.79 226.23C1017.74 225.944 1024.48 224.838 1027.84 219.846C1039.87 201.965 1052.99 184.812 1067.09 168.518C1069.06 166.232 1071.38 163.794 1074.37 163.583C1077.36 163.373 1080.32 167.084 1078.37 169.393C1065.27 184.896 1052.89 201.01 1041.28 217.664C1039.9 219.634 1039.57 223.563 1041.93 223.229C1064.79 219.981 1087.87 218.393 1110.92 218.482C1113.8 218.493 1116.74 218.54 1119.46 219.478C1124.14 221.091 1127.79 225.65 1127.82 230.643C1127.85 235.636 1123.84 240.541 1118.9 240.977C1113.95 241.413 1109.09 236.759 1109.75 231.801C1110.24 228.052 1105.03 226.727 1101.28 226.912C1079.1 228.006 1056.96 230.15 1034.95 233.336C1030.7 233.952 1025.93 234.931 1023.57 238.569C992.428 286.656 950.212 326.506 916.574 372.877C915.118 374.885 911.703 374.189 910.346 372.145C908.988 370.101 909.146 367.403 909.572 364.962C911.628 353.175 919.021 342.378 929.254 336.215C934.659 332.961 939.193 328.44 943.592 323.896C969.705 296.916 993.204 267.372 1013.63 235.833Z" fill="#010102" fill-rule="nonzero" opacity="1" stroke="#010102" stroke-linecap="butt" stroke-linejoin="round" stroke-width="115.142" vectornator:layerName="path"/>
<path d="M416.525 455.583C416.564 457.847 416.598 460.157 415.935 462.329C415.272 464.502 413.783 466.554 411.649 467.296C408.664 468.334 405.36 466.49 403.55 463.92C401.741 461.35 401.02 458.183 400.034 455.186C399.46 453.442 398.776 451.634 399.073 449.811C399.502 447.181 401.828 445.302 404.112 443.938C407.373 441.989 411.954 440.689 414.578 443.386C416.248 445.103 416.388 447.769 416.43 450.185C416.462 451.985 416.493 453.784 416.525 455.583Z" fill="#010102" fill-rule="nonzero" opacity="1" stroke="#010102" stroke-linecap="butt" stroke-linejoin="round" stroke-width="115.142" vectornator:layerName="path"/>
<path d="M924.775 600.653C924.636 602.721 922.363 603.897 920.378 604.463C917.938 605.158 915.39 605.586 913.14 606.774C910.443 608.196 908.395 610.588 906.417 612.923C901.875 618.283 897.333 623.644 892.791 629.004C890.896 631.241 888.128 633.716 885.47 632.576C883.434 631.702 882.76 628.971 883.425 626.828C884.09 624.684 885.726 623 887.307 621.407C891.716 616.965 896.124 612.522 900.533 608.08C902.725 605.871 904.93 603.651 907.458 601.844C910.566 599.621 914.135 598.06 917.857 597.293C919.323 596.991 920.877 596.817 922.279 597.315C923.682 597.813 924.876 599.152 924.775 600.653Z" fill="#010102" fill-rule="nonzero" opacity="1" stroke="#010102" stroke-linecap="butt" stroke-linejoin="round" stroke-width="115.142" vectornator:layerName="path"/>
<path d="M717.403 280.863C720.701 281.226 723.767 283.203 725.462 286.06C727.157 288.916 727.442 292.588 726.212 295.711C725.744 296.899 724.989 298.078 723.812 298.558C723.022 298.881 722.141 298.847 721.295 298.777C718.112 298.512 714.736 297.664 712.693 295.211C711.57 293.863 710.966 292.161 710.382 290.498C709.826 288.911 709.261 287.231 709.575 285.568C710.199 282.266 714.097 280.499 717.403 280.863Z" fill="#010102" fill-rule="nonzero" opacity="1" stroke="#010102" stroke-linecap="butt" stroke-linejoin="round" stroke-width="115.142" vectornator:layerName="path"/>
<path d="M1139.82 264.778C1140.84 262.966 1142.05 261.198 1143.76 260.026C1145.24 259.006 1147.41 260.111 1148.07 261.773C1148.74 263.436 1148.3 265.341 1147.67 267.033C1147.18 268.356 1146.59 269.638 1145.89 270.863C1145.01 272.407 1143.72 274.006 1141.96 274.121C1140.01 274.249 1138.41 272.336 1138.21 270.378C1138.01 268.421 1138.86 266.502 1139.82 264.778Z" fill="#010102" fill-rule="nonzero" opacity="1" stroke="#010102" stroke-linecap="butt" stroke-linejoin="round" stroke-width="115.142" vectornator:layerName="path"/>
<path d="M1033.03 434.912C1034.14 435.595 1034.53 437.089 1034.31 438.391C1034.09 439.693 1033.37 440.852 1032.67 441.973C1029.13 447.618 1025.6 453.262 1022.06 458.907C1021.38 460 1019.88 460.496 1018.7 460.023C1017.52 459.549 1016.79 458.159 1017.06 456.9C1017.17 456.369 1017.44 455.883 1017.7 455.406C1020.76 449.826 1023.82 444.246 1026.88 438.666C1027.53 437.477 1028.21 436.255 1029.27 435.415C1030.33 434.575 1031.89 434.213 1033.03 434.912Z" fill="#010102" fill-rule="nonzero" opacity="1" stroke="#010102" stroke-linecap="butt" stroke-linejoin="round" stroke-width="115.142" vectornator:layerName="path"/>
<path d="M1050.24 393.595C1051.04 392.28 1051.84 390.966 1052.63 389.651C1053.7 387.905 1056.43 387.769 1057.93 389.124C1059.42 390.48 1059.71 392.835 1059.04 394.765C1058.38 396.695 1056.91 398.252 1055.32 399.521C1053.71 400.799 1051.37 401.847 1049.75 400.632C1048.72 399.864 1048.4 398.405 1048.64 397.128C1048.87 395.851 1049.56 394.707 1050.24 393.595Z" fill="#010102" fill-rule="nonzero" opacity="1" stroke="#010102" stroke-linecap="butt" stroke-linejoin="round" stroke-width="115.142" vectornator:layerName="path"/>
<path d="M1131.95 301.544C1132.11 302.736 1132 304.082 1131.15 304.949C1130.16 305.969 1128.42 305.936 1127.27 305.132C1126.11 304.327 1125.49 302.933 1125.26 301.536C1125.03 300.166 1125.21 298.565 1126.29 297.685C1127.38 296.796 1129.07 296.995 1130.15 297.874C1131.22 298.754 1131.76 300.155 1131.95 301.544Z" fill="#010102" fill-rule="nonzero" opacity="1" stroke="#010102" stroke-linecap="butt" stroke-linejoin="round" stroke-width="115.142" vectornator:layerName="path"/>
<path d="M1037.84 421.248C1036.2 420.222 1034.65 418.601 1034.74 416.647C1034.78 415.814 1035.13 415.02 1035.55 414.299C1037.13 411.625 1040.81 409.709 1043.27 411.535C1045.29 413.031 1045.28 416.12 1044.43 418.517C1043.83 420.192 1042.68 421.936 1040.94 422.173C1039.84 422.322 1038.77 421.83 1037.84 421.248Z" fill="#010102" fill-rule="nonzero" opacity="1" stroke="#010102" stroke-linecap="butt" stroke-linejoin="round" stroke-width="115.142" vectornator:layerName="path"/>
<path d="M1126.37 285.478C1126.56 284.246 1127.16 282.947 1128.31 282.465C1130.33 281.612 1132.35 283.88 1132.75 286.041C1133.06 287.718 1132.72 289.758 1131.23 290.602C1129.94 291.333 1128.21 290.817 1127.29 289.679C1126.36 288.541 1126.14 286.943 1126.37 285.478Z" fill="#010102" fill-rule="nonzero" opacity="1" stroke="#010102" stroke-linecap="butt" stroke-linejoin="round" stroke-width="115.142" vectornator:layerName="path"/>
<path d="M288.256 360.375C322.427 321.18 358.616 283.652 398.102 249.902C402.993 245.722 408.113 241.5 414.231 239.614C420.349 237.729 427.766 238.743 431.739 243.718C434.533 247.216 435.179 251.989 435.152 256.504C435.02 278.39 421.893 297.917 409.285 315.896C393.666 338.17 378.047 360.444 362.428 382.718C368.854 386.15 374.152 391.653 377.362 398.228C378.308 400.166 379.071 402.488 378.124 404.448C376.617 407.567 371.933 407.392 369.135 405.43C366.337 403.469 364.482 400.363 361.652 398.449C356.941 395.262 350.384 396.084 345.408 398.959C340.433 401.834 336.688 406.419 333.062 410.901C324.58 421.385 316.098 431.87 307.616 442.354C306.406 443.85 305.063 445.434 303.209 445.897C298.051 447.186 295.721 439.869 295.027 434.587C293.087 419.825 285.172 406.021 273.48 397.009C271.386 395.394 268.124 394.029 266.36 396.046C224.639 443.754 166.511 474.312 106.529 493.607C94.3081 497.539 81.4804 501.085 68.8654 499.146C67.4845 494.895 73.2788 492.094 77.6735 491.291C144.937 478.998 208.433 445.311 256.791 396.263C260.529 392.472 259.491 385.785 256 381.847C252.509 377.91 247.322 376.037 242.357 374.309C232.929 371.028 223.501 367.747 214.073 364.465C210.712 363.295 207.039 361.861 205.442 358.666C203.845 355.47 206.371 350.404 209.825 351.271C226.482 355.451 243.139 359.631 259.796 363.812C269.543 366.258 281.57 368.044 288.256 360.375M424.996 268.519C427.21 262.414 428.178 254.38 423.004 250.6C417.829 246.819 410.549 250.189 405.229 253.89C388.36 265.625 373.92 280.512 359.598 295.297C353.331 301.767 347.064 308.237 340.797 314.707C336.197 319.456 331.596 324.205 327.082 329.038C321.252 335.278 315.568 341.654 309.884 348.029C304.748 353.789 299.612 359.55 294.476 365.311C294.019 365.823 293.541 366.381 293.452 367.061C293.224 368.79 295.413 369.653 297.121 369.915C313.131 372.373 329.142 374.83 345.152 377.288C347.63 377.668 350.279 378.026 352.565 376.951C354.405 376.086 355.73 374.417 356.978 372.801C375.559 348.766 393.021 323.859 409.287 298.192C415.29 288.719 421.172 279.057 424.996 268.519M282.052 392.773C292.368 401.258 301.762 411.775 305.213 424.77C305.503 425.864 306.901 426.315 307.983 425.983C309.066 425.651 309.892 424.779 310.665 423.942C317.157 416.908 323.649 409.875 330.142 402.841C333.524 399.177 337.07 395.181 337.777 390.251C331.401 384.714 322.549 383.278 314.182 382.056C306.933 380.997 299.684 379.939 292.435 378.88C289.199 378.407 285.822 377.946 282.7 378.983C279.578 380.02 276.824 383.051 277.241 386.318C277.592 389.067 279.93 391.028 282.052 392.773Z" fill="#010102" fill-rule="nonzero" opacity="1" stroke="#010102" stroke-linecap="butt" stroke-linejoin="round" stroke-width="115.142" vectornator:layerName="path"/>
</g>
<g opacity="1">
<path d="M608.065 425.339C605.72 426.418 602.808 427.034 600.718 425.561C598.578 424.052 598.211 420.989 598.56 418.363C599.687 409.863 605.923 403.054 611.594 396.606C623.447 383.126 634.107 368.59 643.453 353.254C645.147 350.474 647.057 347.452 650.132 346.446C653.206 345.44 657.333 348.133 656.289 351.214C649.559 371.082 629.994 384.435 622.808 404.144C621.471 407.812 620.58 411.662 618.775 415.124C616.449 419.586 612.613 423.244 608.065 425.339Z" fill="#fffdfb" fill-rule="nonzero" opacity="1" stroke="none" vectornator:layerName="path"/>
<path d="M855.328 326.223C843.007 336.506 832.31 348.77 823.778 362.395C820.687 367.332 817.855 372.499 816.209 378.083C815.629 380.054 815.227 382.291 816.24 384.057C818.02 387.16 822.618 386.667 825.97 385.368C835.397 381.713 843.578 374.801 848.801 366.078C853.184 358.759 860.114 353.397 865.725 346.977C871.337 340.557 875.824 331.95 873.651 323.762C872.464 319.29 869.434 314.403 871.934 310.472C874.363 306.65 880.659 307.42 883.4 310.957C886.141 314.494 886.151 319.464 885.416 323.925C884.371 330.271 882.062 336.419 878.668 341.896C875.32 347.297 870.855 352.214 869.239 358.353C867.789 363.862 863.135 367.849 858.732 371.456C846.184 381.737 833.328 392.198 818.186 397.837C815.426 398.866 812.42 399.733 809.595 398.974C805.871 397.974 803.384 394.319 802.467 390.548C800.243 381.408 805.391 372.144 810.589 364.228C820.563 349.037 831.708 334.273 846.149 323.303C848.175 321.764 850.555 320.23 853.04 320.64C855.525 321.051 857.283 324.592 855.328 326.223Z" fill="#fffdfb" fill-rule="nonzero" opacity="1" stroke="none" vectornator:layerName="path"/>
<path d="M1004.46 464.042C1006.68 462.334 1009.66 460.65 1012.05 462.025C1012.88 467.218 1007.64 471.122 1003.49 474.379C992.736 482.816 985.694 495.046 978.926 506.953C965.959 529.763 952.91 552.754 944.528 577.603C943.568 580.451 938.79 579.508 937.774 576.703C936.758 573.899 938.147 570.818 939.504 568.134C949.24 548.867 958.976 529.6 968.713 510.333C971.521 504.777 974.333 499.213 977.595 493.911C984.655 482.434 993.813 472.254 1004.46 464.042Z" fill="#fffdfb" fill-rule="nonzero" opacity="1" stroke="none" vectornator:layerName="path"/>
<path d="M462.545 425.012C456.162 422.605 449.073 422.065 443.09 418.793C441.471 417.908 439.78 416.487 439.911 414.626C440.075 412.309 442.798 411.214 445.042 410.657C452.828 408.724 460.614 406.791 468.4 404.859C473.896 403.494 481.201 402.91 483.636 408.008C480.159 410.278 476.681 412.549 473.204 414.819C472.658 415.176 472.076 415.576 471.855 416.192C471.43 417.377 472.536 418.495 473.525 419.248C482.737 426.272 491.949 433.295 501.162 440.318C504.138 442.587 507.263 444.923 510.953 445.574C514.615 446.22 518.42 445.1 521.704 443.289C528.308 439.649 533.091 433.435 537.49 427.277C560.203 395.479 578.007 360.477 598.677 327.31C619.347 294.142 643.529 262.179 675.669 240.126C681.97 235.802 690.29 231.827 696.749 235.746C700.596 238.08 702.558 242.756 702.755 247.296C702.952 251.836 701.64 256.313 700.218 260.646C699.424 263.068 698.479 265.633 696.428 267.138C694.377 268.643 690.893 268.367 689.978 266.01C689.42 264.572 689.973 262.956 690.469 261.482C691.967 257.022 692.475 251.12 688.561 248.625C684.477 246.022 679.23 249.327 675.556 252.576C622.763 299.27 590.13 364.095 550.58 422.549C543.541 432.951 536.068 443.38 525.958 450.785C516.007 458.074 501.845 453.607 492.025 446.378C482.206 439.149 473.956 429.316 462.545 425.012Z" fill="#fffdfb" fill-rule="nonzero" opacity="1" stroke="none" vectornator:layerName="path"/>
<path d="M1153.45 241.104C1163.38 218.437 1178.76 198.632 1194.49 179.528C1196.62 176.94 1198.76 174.357 1201.04 171.908C1202.73 170.104 1204.84 168.237 1207.27 168.474C1211.05 168.842 1212.36 174.201 1210.52 177.577C1208.69 180.954 1205.1 182.89 1202 185.152C1194.89 190.35 1189.85 197.871 1184.96 205.229C1175.6 219.321 1166.24 233.413 1156.88 247.505C1155.86 249.042 1153.21 248.149 1152.6 246.424C1151.99 244.7 1152.7 242.794 1153.45 241.104Z" fill="#fffdfb" fill-rule="nonzero" opacity="1" stroke="none" vectornator:layerName="path"/>
<path d="M788.143 317.833C775.681 323.364 767.626 335.509 759.481 346.524C747.579 362.619 734.061 377.511 719.206 390.894C718.05 391.935 716.848 393.02 716.256 394.461C715.665 395.898 715.757 397.504 715.719 399.053C715.6 403.928 713.94 408.971 710.328 412.261C706.715 415.551 700.955 416.621 696.914 413.986C692.873 411.351 691.764 404.77 695.298 401.394C701.762 395.219 708.227 389.043 714.691 382.867C722.664 375.251 730.689 367.574 737.108 358.596C737.605 357.901 738.107 357.158 738.195 356.31C738.443 353.902 735.216 352.579 732.928 353.341C730.64 354.102 728.911 356.014 726.762 357.119C724.613 358.224 721.375 358.081 720.532 355.827C719.679 353.548 721.918 351.332 723.94 349.953C741.731 337.823 763.704 330.379 776.091 312.698C795.435 285.088 814.778 257.479 834.121 229.87C838.888 223.066 843.826 216.092 850.743 211.532C857.057 207.37 864.547 205.535 871.886 203.865C874.55 203.258 877.959 202.954 879.367 205.285C880.008 206.347 880.005 207.673 879.948 208.922C879.037 228.92 869.414 247.831 856.525 263.216C843.635 278.6 827.571 290.911 811.543 302.933C804.123 308.499 796.599 314.08 788.143 317.833M801.098 292.302C799.579 294.679 798.029 297.531 798.981 300.161C824.74 280.785 851.712 259.865 863.678 229.869C865.276 225.865 860.215 221.894 856.027 222.77C851.839 223.646 848.853 227.306 846.231 230.729C842.42 235.702 838.609 240.675 834.798 245.648C823.127 260.88 811.44 276.134 801.098 292.302Z" fill="#fffdfb" fill-rule="nonzero" opacity="1" stroke="none" vectornator:layerName="path"/>
<path d="M1039.65 303.508C1037.36 308.13 1033.47 311.703 1030.08 315.584C1023.9 322.656 1019.23 331.05 1016.47 340.025C1015.37 343.612 1014.52 347.408 1012.22 350.376C1009.92 353.345 1005.6 355.176 1002.41 353.306C999.681 351.713 998.797 348.007 999.51 344.891C1000.22 341.775 1002.18 339.107 1004.09 336.541C1012.88 324.748 1021.66 312.954 1030.45 301.16C1031.63 299.573 1032.88 297.928 1034.64 297.041C1036.4 296.153 1038.83 296.291 1039.96 297.884C1041.1 299.478 1040.52 301.731 1039.65 303.508Z" fill="#fffdfb" fill-rule="nonzero" opacity="1" stroke="none" vectornator:layerName="path"/>
<path d="M1064.56 239.775C1068.67 239.479 1073 239.496 1076.62 241.433C1080.24 243.371 1082.84 247.791 1081.46 251.72C1080.45 254.616 1077.68 256.466 1075.09 258.1C1072.96 259.442 1070.84 260.784 1068.71 262.126C1066.91 263.262 1064.8 264.444 1062.8 263.787C1060.5 263.034 1059.61 260.295 1059.18 257.898C1058.8 255.77 1058.54 253.62 1058.4 251.46C1058.23 249.017 1058.24 246.484 1059.16 244.206C1060.08 241.928 1062.13 239.949 1064.56 239.775Z" fill="#fffdfb" fill-rule="nonzero" opacity="1" stroke="none" vectornator:layerName="path"/>
<path d="M1061.02 387.894C1061.85 384.206 1062.68 380.518 1063.52 376.831C1064.41 372.848 1065.44 368.631 1068.33 365.748C1084.2 349.92 1092.15 326.601 1110.42 313.681C1112.04 312.536 1113.95 311.44 1115.88 311.829C1117.8 312.217 1119.14 314.924 1117.67 316.26C1095.12 336.747 1081.48 365.29 1061.02 387.894Z" fill="#fffdfb" fill-rule="nonzero" opacity="1" stroke="none" vectornator:layerName="path"/>
<path d="M1013.63 235.833C991.593 234.669 969.553 233.505 947.513 232.341C945.495 232.234 943.043 231.821 942.37 229.909C941.556 227.595 944.108 225.497 946.387 224.573C958.259 219.759 971.515 223.134 984.112 224.933C993.258 226.239 1002.54 226.674 1011.79 226.23C1017.74 225.944 1024.48 224.838 1027.84 219.846C1039.87 201.965 1052.99 184.812 1067.09 168.518C1069.06 166.232 1071.38 163.794 1074.37 163.583C1077.36 163.373 1080.32 167.084 1078.37 169.393C1065.27 184.896 1052.89 201.01 1041.28 217.664C1039.9 219.634 1039.57 223.563 1041.93 223.229C1064.79 219.981 1087.87 218.393 1110.92 218.482C1113.8 218.493 1116.74 218.54 1119.46 219.478C1124.14 221.091 1127.79 225.65 1127.82 230.643C1127.85 235.636 1123.84 240.541 1118.9 240.977C1113.95 241.413 1109.09 236.759 1109.75 231.801C1110.24 228.052 1105.03 226.727 1101.28 226.912C1079.1 228.006 1056.96 230.15 1034.95 233.336C1030.7 233.952 1025.93 234.931 1023.57 238.569C992.428 286.656 950.212 326.506 916.574 372.877C915.118 374.885 911.703 374.189 910.346 372.145C908.988 370.101 909.146 367.403 909.572 364.962C911.628 353.175 919.021 342.378 929.254 336.215C934.659 332.961 939.193 328.44 943.592 323.896C969.705 296.916 993.204 267.372 1013.63 235.833Z" fill="#fffdfb" fill-rule="nonzero" opacity="1" stroke="none" vectornator:layerName="path"/>
<path d="M416.525 455.583C416.564 457.847 416.598 460.157 415.935 462.329C415.272 464.502 413.783 466.554 411.649 467.296C408.664 468.334 405.36 466.49 403.55 463.92C401.741 461.35 401.02 458.183 400.034 455.186C399.46 453.442 398.776 451.634 399.073 449.811C399.502 447.181 401.828 445.302 404.112 443.938C407.373 441.989 411.954 440.689 414.578 443.386C416.248 445.103 416.388 447.769 416.43 450.185C416.462 451.985 416.493 453.784 416.525 455.583Z" fill="#fffdfb" fill-rule="nonzero" opacity="1" stroke="none" vectornator:layerName="path"/>
<path d="M924.775 600.653C924.636 602.721 922.363 603.897 920.378 604.463C917.938 605.158 915.39 605.586 913.14 606.774C910.443 608.196 908.395 610.588 906.417 612.923C901.875 618.283 897.333 623.644 892.791 629.004C890.896 631.241 888.128 633.716 885.47 632.576C883.434 631.702 882.76 628.971 883.425 626.828C884.09 624.684 885.726 623 887.307 621.407C891.716 616.965 896.124 612.522 900.533 608.08C902.725 605.871 904.93 603.651 907.458 601.844C910.566 599.621 914.135 598.06 917.857 597.293C919.323 596.991 920.877 596.817 922.279 597.315C923.682 597.813 924.876 599.152 924.775 600.653Z" fill="#fffdfb" fill-rule="nonzero" opacity="1" stroke="none" vectornator:layerName="path"/>
<path d="M717.403 280.863C720.701 281.226 723.767 283.203 725.462 286.06C727.157 288.916 727.442 292.588 726.212 295.711C725.744 296.899 724.989 298.078 723.812 298.558C723.022 298.881 722.141 298.847 721.295 298.777C718.112 298.512 714.736 297.664 712.693 295.211C711.57 293.863 710.966 292.161 710.382 290.498C709.826 288.911 709.261 287.231 709.575 285.568C710.199 282.266 714.097 280.499 717.403 280.863Z" fill="#fffdfb" fill-rule="nonzero" opacity="1" stroke="none" vectornator:layerName="path"/>
<path d="M1139.82 264.778C1140.84 262.966 1142.05 261.198 1143.76 260.026C1145.24 259.006 1147.41 260.111 1148.07 261.773C1148.74 263.436 1148.3 265.341 1147.67 267.033C1147.18 268.356 1146.59 269.638 1145.89 270.863C1145.01 272.407 1143.72 274.006 1141.96 274.121C1140.01 274.249 1138.41 272.336 1138.21 270.378C1138.01 268.421 1138.86 266.502 1139.82 264.778Z" fill="#fffdfb" fill-rule="nonzero" opacity="1" stroke="none" vectornator:layerName="path"/>
<path d="M1033.03 434.912C1034.14 435.595 1034.53 437.089 1034.31 438.391C1034.09 439.693 1033.37 440.852 1032.67 441.973C1029.13 447.618 1025.6 453.262 1022.06 458.907C1021.38 460 1019.88 460.496 1018.7 460.023C1017.52 459.549 1016.79 458.159 1017.06 456.9C1017.17 456.369 1017.44 455.883 1017.7 455.406C1020.76 449.826 1023.82 444.246 1026.88 438.666C1027.53 437.477 1028.21 436.255 1029.27 435.415C1030.33 434.575 1031.89 434.213 1033.03 434.912Z" fill="#fffdfb" fill-rule="nonzero" opacity="1" stroke="none" vectornator:layerName="path"/>
<path d="M1050.24 393.595C1051.04 392.28 1051.84 390.966 1052.63 389.651C1053.7 387.905 1056.43 387.769 1057.93 389.124C1059.42 390.48 1059.71 392.835 1059.04 394.765C1058.38 396.695 1056.91 398.252 1055.32 399.521C1053.71 400.799 1051.37 401.847 1049.75 400.632C1048.72 399.864 1048.4 398.405 1048.64 397.128C1048.87 395.851 1049.56 394.707 1050.24 393.595Z" fill="#fffdfb" fill-rule="nonzero" opacity="1" stroke="none" vectornator:layerName="path"/>
<path d="M1131.95 301.544C1132.11 302.736 1132 304.082 1131.15 304.949C1130.16 305.969 1128.42 305.936 1127.27 305.132C1126.11 304.327 1125.49 302.933 1125.26 301.536C1125.03 300.166 1125.21 298.565 1126.29 297.685C1127.38 296.796 1129.07 296.995 1130.15 297.874C1131.22 298.754 1131.76 300.155 1131.95 301.544Z" fill="#fffdfb" fill-rule="nonzero" opacity="1" stroke="none" vectornator:layerName="path"/>
<path d="M1037.84 421.248C1036.2 420.222 1034.65 418.601 1034.74 416.647C1034.78 415.814 1035.13 415.02 1035.55 414.299C1037.13 411.625 1040.81 409.709 1043.27 411.535C1045.29 413.031 1045.28 416.12 1044.43 418.517C1043.83 420.192 1042.68 421.936 1040.94 422.173C1039.84 422.322 1038.77 421.83 1037.84 421.248Z" fill="#fffdfb" fill-rule="nonzero" opacity="1" stroke="none" vectornator:layerName="path"/>
<path d="M1126.37 285.478C1126.56 284.246 1127.16 282.947 1128.31 282.465C1130.33 281.612 1132.35 283.88 1132.75 286.041C1133.06 287.718 1132.72 289.758 1131.23 290.602C1129.94 291.333 1128.21 290.817 1127.29 289.679C1126.36 288.541 1126.14 286.943 1126.37 285.478Z" fill="#fffdfb" fill-rule="nonzero" opacity="1" stroke="none" vectornator:layerName="path"/>
<path d="M288.256 360.375C322.427 321.18 358.616 283.652 398.102 249.902C402.993 245.722 408.113 241.5 414.231 239.614C420.349 237.729 427.766 238.743 431.739 243.718C434.533 247.216 435.179 251.989 435.152 256.504C435.02 278.39 421.893 297.917 409.285 315.896C393.666 338.17 378.047 360.444 362.428 382.718C368.854 386.15 374.152 391.653 377.362 398.228C378.308 400.166 379.071 402.488 378.124 404.448C376.617 407.567 371.933 407.392 369.135 405.43C366.337 403.469 364.482 400.363 361.652 398.449C356.941 395.262 350.384 396.084 345.408 398.959C340.433 401.834 336.688 406.419 333.062 410.901C324.58 421.385 316.098 431.87 307.616 442.354C306.406 443.85 305.063 445.434 303.209 445.897C298.051 447.186 295.721 439.869 295.027 434.587C293.087 419.825 285.172 406.021 273.48 397.009C271.386 395.394 268.124 394.029 266.36 396.046C224.639 443.754 166.511 474.312 106.529 493.607C94.3081 497.539 81.4804 501.085 68.8654 499.146C67.4845 494.895 73.2788 492.094 77.6735 491.291C144.937 478.998 208.433 445.311 256.791 396.263C260.529 392.472 259.491 385.785 256 381.847C252.509 377.91 247.322 376.037 242.357 374.309C232.929 371.028 223.501 367.747 214.073 364.465C210.712 363.295 207.039 361.861 205.442 358.666C203.845 355.47 206.371 350.404 209.825 351.271C226.482 355.451 243.139 359.631 259.796 363.812C269.543 366.258 281.57 368.044 288.256 360.375M424.996 268.519C427.21 262.414 428.178 254.38 423.004 250.6C417.829 246.819 410.549 250.189 405.229 253.89C388.36 265.625 373.92 280.512 359.598 295.297C353.331 301.767 347.064 308.237 340.797 314.707C336.197 319.456 331.596 324.205 327.082 329.038C321.252 335.278 315.568 341.654 309.884 348.029C304.748 353.789 299.612 359.55 294.476 365.311C294.019 365.823 293.541 366.381 293.452 367.061C293.224 368.79 295.413 369.653 297.121 369.915C313.131 372.373 329.142 374.83 345.152 377.288C347.63 377.668 350.279 378.026 352.565 376.951C354.405 376.086 355.73 374.417 356.978 372.801C375.559 348.766 393.021 323.859 409.287 298.192C415.29 288.719 421.172 279.057 424.996 268.519M282.052 392.773C292.368 401.258 301.762 411.775 305.213 424.77C305.503 425.864 306.901 426.315 307.983 425.983C309.066 425.651 309.892 424.779 310.665 423.942C317.157 416.908 323.649 409.875 330.142 402.841C333.524 399.177 337.07 395.181 337.777 390.251C331.401 384.714 322.549 383.278 314.182 382.056C306.933 380.997 299.684 379.939 292.435 378.88C289.199 378.407 285.822 377.946 282.7 378.983C279.578 380.02 276.824 383.051 277.241 386.318C277.592 389.067 279.93 391.028 282.052 392.773Z" fill="#fffdfb" fill-rule="nonzero" opacity="1" stroke="none" vectornator:layerName="path"/>
</g>
<path d="M843.006 588.814L896.268 536.069C901.966 530.426 911.16 530.471 916.802 536.169L916.802 536.169C922.445 541.867 922.4 551.06 916.702 556.703L863.44 609.448C857.742 615.09 848.549 615.045 842.906 609.347L842.906 609.347C837.263 603.649 837.308 594.456 843.006 588.814Z" fill="#000000" fill-rule="nonzero" opacity="1" stroke="#010102" stroke-linecap="butt" stroke-linejoin="round" stroke-width="103.809"/>
</g>
</svg>
