<?xml version="1.0" encoding="UTF-8" standalone="no"?>
<!DOCTYPE svg PUBLIC "-//W3C//DTD SVG 1.1//EN" "http://www.w3.org/Graphics/SVG/1.1/DTD/svg11.dtd">
<!-- Created with Vectornator (http://vectornator.io/) -->
<svg height="100%" stroke-miterlimit="10" style="fill-rule:nonzero;clip-rule:evenodd;stroke-linecap:round;stroke-linejoin:round;" version="1.1" viewBox="0 0 792.995 165.487" width="100%" xml:space="preserve" xmlns="http://www.w3.org/2000/svg" xmlns:vectornator="http://vectornator.io" xmlns:xlink="http://www.w3.org/1999/xlink">
<defs/>
<clipPath id="ArtboardFrame">
<rect height="165.487" width="792.995" x="0" y="0"/>
</clipPath>
<g clip-path="url(#ArtboardFrame)" id="Layer-1" vectornator:layerName="Layer 1" visibility="hidden">
<g opacity="0">
<path d="M608.065 425.339C605.72 426.418 602.808 427.034 600.718 425.561C598.578 424.052 598.211 420.989 598.56 418.363C599.687 409.863 605.923 403.054 611.594 396.606C623.447 383.126 634.107 368.59 643.453 353.254C645.147 350.474 647.057 347.452 650.132 346.446C653.206 345.44 657.333 348.133 656.289 351.214C649.559 371.082 629.994 384.435 622.808 404.144C621.471 407.812 620.58 411.662 618.775 415.124C616.449 419.586 612.613 423.244 608.065 425.339Z" fill="#010102" fill-rule="nonzero" opacity="1" stroke="none" vectornator:layerName="path"/>
<path d="M855.328 326.223C843.007 336.506 832.31 348.77 823.778 362.395C820.687 367.332 817.855 372.499 816.209 378.083C815.629 380.054 815.227 382.291 816.24 384.057C818.02 387.16 822.618 386.667 825.97 385.368C835.397 381.713 843.578 374.801 848.801 366.078C853.184 358.759 860.114 353.397 865.725 346.977C871.337 340.557 875.824 331.95 873.651 323.762C872.464 319.29 869.434 314.403 871.934 310.472C874.363 306.65 880.659 307.42 883.4 310.957C886.141 314.494 886.151 319.464 885.416 323.925C884.371 330.271 882.062 336.419 878.668 341.896C875.32 347.297 870.855 352.214 869.239 358.353C867.789 363.862 863.135 367.849 858.732 371.456C846.184 381.737 833.328 392.198 818.186 397.837C815.426 398.866 812.42 399.733 809.595 398.974C805.871 397.974 803.384 394.319 802.467 390.548C800.243 381.408 805.391 372.144 810.589 364.228C820.563 349.037 831.708 334.273 846.149 323.303C848.175 321.764 850.555 320.23 853.04 320.64C855.525 321.051 857.283 324.592 855.328 326.223Z" fill="#010102" fill-rule="nonzero" opacity="1" stroke="none" vectornator:layerName="path"/>
<path d="M1004.46 464.042C1006.68 462.334 1009.66 460.65 1012.05 462.025C1012.88 467.218 1007.64 471.122 1003.49 474.379C992.736 482.816 985.694 495.046 978.926 506.953C965.959 529.763 952.91 552.754 944.528 577.603C943.568 580.451 938.79 579.508 937.774 576.703C936.758 573.899 938.147 570.818 939.504 568.134C949.24 548.867 958.976 529.6 968.713 510.333C971.521 504.777 974.333 499.213 977.595 493.911C984.655 482.434 993.813 472.254 1004.46 464.042Z" fill="#010102" fill-rule="nonzero" opacity="1" stroke="none" vectornator:layerName="path"/>
<path d="M462.545 425.012C456.162 422.605 449.073 422.065 443.09 418.793C441.471 417.908 439.78 416.487 439.911 414.626C440.075 412.309 442.798 411.214 445.042 410.657C452.828 408.724 460.614 406.791 468.4 404.859C473.896 403.494 481.201 402.91 483.636 408.008C480.159 410.278 476.681 412.549 473.204 414.819C472.658 415.176 472.076 415.576 471.855 416.192C471.43 417.377 472.536 418.495 473.525 419.248C482.737 426.272 491.949 433.295 501.162 440.318C504.138 442.587 507.263 444.923 510.953 445.574C514.615 446.22 518.42 445.1 521.704 443.289C528.308 439.649 533.091 433.435 537.49 427.277C560.203 395.479 578.007 360.477 598.677 327.31C619.347 294.142 643.529 262.179 675.669 240.126C681.97 235.802 690.29 231.827 696.749 235.746C700.596 238.08 702.558 242.756 702.755 247.296C702.952 251.836 701.64 256.313 700.218 260.646C699.424 263.068 698.479 265.633 696.428 267.138C694.377 268.643 690.893 268.367 689.978 266.01C689.42 264.572 689.973 262.956 690.469 261.482C691.967 257.022 692.475 251.12 688.561 248.625C684.477 246.022 679.23 249.327 675.556 252.576C622.763 299.27 590.13 364.095 550.58 422.549C543.541 432.951 536.068 443.38 525.958 450.785C516.007 458.074 501.845 453.607 492.025 446.378C482.206 439.149 473.956 429.316 462.545 425.012Z" fill="#010102" fill-rule="nonzero" opacity="1" stroke="none" vectornator:layerName="path"/>
<path d="M1153.45 241.104C1163.38 218.437 1178.76 198.632 1194.49 179.528C1196.62 176.94 1198.76 174.357 1201.04 171.908C1202.73 170.104 1204.84 168.237 1207.27 168.474C1211.05 168.842 1212.36 174.201 1210.52 177.577C1208.69 180.954 1205.1 182.89 1202 185.152C1194.89 190.35 1189.85 197.871 1184.96 205.229C1175.6 219.321 1166.24 233.413 1156.88 247.505C1155.86 249.042 1153.21 248.149 1152.6 246.424C1151.99 244.7 1152.7 242.794 1153.45 241.104Z" fill="#010102" fill-rule="nonzero" opacity="1" stroke="none" vectornator:layerName="path"/>
<path d="M788.143 317.833C775.681 323.364 767.626 335.509 759.481 346.524C747.579 362.619 734.061 377.511 719.206 390.894C718.05 391.935 716.848 393.02 716.256 394.461C715.665 395.898 715.757 397.504 715.719 399.053C715.6 403.928 713.94 408.971 710.328 412.261C706.715 415.551 700.955 416.621 696.914 413.986C692.873 411.351 691.764 404.77 695.298 401.394C701.762 395.219 708.227 389.043 714.691 382.867C722.664 375.251 730.689 367.574 737.108 358.596C737.605 357.901 738.107 357.158 738.195 356.31C738.443 353.902 735.216 352.579 732.928 353.341C730.64 354.102 728.911 356.014 726.762 357.119C724.613 358.224 721.375 358.081 720.532 355.827C719.679 353.548 721.918 351.332 723.94 349.953C741.731 337.823 763.704 330.379 776.091 312.698C795.435 285.088 814.778 257.479 834.121 229.87C838.888 223.066 843.826 216.092 850.743 211.532C857.057 207.37 864.547 205.535 871.886 203.865C874.55 203.258 877.959 202.954 879.367 205.285C880.008 206.347 880.005 207.673 879.948 208.922C879.037 228.92 869.414 247.831 856.525 263.216C843.635 278.6 827.571 290.911 811.543 302.933C804.123 308.499 796.599 314.08 788.143 317.833M801.098 292.302C799.579 294.679 798.029 297.531 798.981 300.161C824.74 280.785 851.712 259.865 863.678 229.869C865.276 225.865 860.215 221.894 856.027 222.77C851.839 223.646 848.853 227.306 846.231 230.729C842.42 235.702 838.609 240.675 834.798 245.648C823.127 260.88 811.44 276.134 801.098 292.302Z" fill="#010102" fill-rule="nonzero" opacity="1" stroke="none" vectornator:layerName="path"/>
<path d="M1039.65 303.508C1037.36 308.13 1033.47 311.703 1030.08 315.584C1023.9 322.656 1019.23 331.05 1016.47 340.025C1015.37 343.612 1014.52 347.408 1012.22 350.376C1009.92 353.345 1005.6 355.176 1002.41 353.306C999.681 351.713 998.797 348.007 999.51 344.891C1000.22 341.775 1002.18 339.107 1004.09 336.541C1012.88 324.748 1021.66 312.954 1030.45 301.16C1031.63 299.573 1032.88 297.928 1034.64 297.041C1036.4 296.153 1038.83 296.291 1039.96 297.884C1041.1 299.478 1040.52 301.731 1039.65 303.508Z" fill="#010102" fill-rule="nonzero" opacity="1" stroke="none" vectornator:layerName="path"/>
<path d="M1064.56 239.775C1068.67 239.479 1073 239.496 1076.62 241.433C1080.24 243.371 1082.84 247.791 1081.46 251.72C1080.45 254.616 1077.68 256.466 1075.09 258.1C1072.96 259.442 1070.84 260.784 1068.71 262.126C1066.91 263.262 1064.8 264.444 1062.8 263.787C1060.5 263.034 1059.61 260.295 1059.18 257.898C1058.8 255.77 1058.54 253.62 1058.4 251.46C1058.23 249.017 1058.24 246.484 1059.16 244.206C1060.08 241.928 1062.13 239.949 1064.56 239.775Z" fill="#010102" fill-rule="nonzero" opacity="1" stroke="none" vectornator:layerName="path"/>
<path d="M1061.02 387.894C1061.85 384.206 1062.68 380.518 1063.52 376.831C1064.41 372.848 1065.44 368.631 1068.33 365.748C1084.2 349.92 1092.15 326.601 1110.42 313.681C1112.04 312.536 1113.95 311.44 1115.88 311.829C1117.8 312.217 1119.14 314.924 1117.67 316.26C1095.12 336.747 1081.48 365.29 1061.02 387.894Z" fill="#010102" fill-rule="nonzero" opacity="1" stroke="none" vectornator:layerName="path"/>
<path d="M1013.63 235.833C991.593 234.669 969.553 233.505 947.513 232.341C945.495 232.234 943.043 231.821 942.37 229.909C941.556 227.595 944.108 225.497 946.387 224.573C958.259 219.759 971.515 223.134 984.112 224.933C993.258 226.239 1002.54 226.674 1011.79 226.23C1017.74 225.944 1024.48 224.838 1027.84 219.846C1039.87 201.965 1052.99 184.812 1067.09 168.518C1069.06 166.232 1071.38 163.794 1074.37 163.583C1077.36 163.373 1080.32 167.084 1078.37 169.393C1065.27 184.896 1052.89 201.01 1041.28 217.664C1039.9 219.634 1039.57 223.563 1041.93 223.229C1064.79 219.981 1087.87 218.393 1110.92 218.482C1113.8 218.493 1116.74 218.54 1119.46 219.478C1124.14 221.091 1127.79 225.65 1127.82 230.643C1127.85 235.636 1123.84 240.541 1118.9 240.977C1113.95 241.413 1109.09 236.759 1109.75 231.801C1110.24 228.052 1105.03 226.727 1101.28 226.912C1079.1 228.006 1056.96 230.15 1034.95 233.336C1030.7 233.952 1025.93 234.931 1023.57 238.569C992.428 286.656 950.212 326.506 916.574 372.877C915.118 374.885 911.703 374.189 910.346 372.145C908.988 370.101 909.146 367.403 909.572 364.962C911.628 353.175 919.021 342.378 929.254 336.215C934.659 332.961 939.193 328.44 943.592 323.896C969.705 296.916 993.204 267.372 1013.63 235.833Z" fill="#010102" fill-rule="nonzero" opacity="1" stroke="none" vectornator:layerName="path"/>
<path d="M416.525 455.583C416.564 457.847 416.598 460.157 415.935 462.329C415.272 464.502 413.783 466.554 411.649 467.296C408.664 468.334 405.36 466.49 403.55 463.92C401.741 461.35 401.02 458.183 400.034 455.186C399.46 453.442 398.776 451.634 399.073 449.811C399.502 447.181 401.828 445.302 404.112 443.938C407.373 441.989 411.954 440.689 414.578 443.386C416.248 445.103 416.388 447.769 416.43 450.185C416.462 451.985 416.493 453.784 416.525 455.583Z" fill="#010102" fill-rule="nonzero" opacity="1" stroke="none" vectornator:layerName="path"/>
<path d="M924.775 600.653C924.636 602.721 922.363 603.897 920.378 604.463C917.938 605.158 915.39 605.586 913.14 606.774C910.443 608.196 908.395 610.588 906.417 612.923C901.875 618.283 897.333 623.644 892.791 629.004C890.896 631.241 888.128 633.716 885.47 632.576C883.434 631.702 882.76 628.971 883.425 626.828C884.09 624.684 885.726 623 887.307 621.407C891.716 616.965 896.124 612.522 900.533 608.08C902.725 605.871 904.93 603.651 907.458 601.844C910.566 599.621 914.135 598.06 917.857 597.293C919.323 596.991 920.877 596.817 922.279 597.315C923.682 597.813 924.876 599.152 924.775 600.653Z" fill="#010102" fill-rule="nonzero" opacity="1" stroke="none" vectornator:layerName="path"/>
<path d="M717.403 280.863C720.701 281.226 723.767 283.203 725.462 286.06C727.157 288.916 727.442 292.588 726.212 295.711C725.744 296.899 724.989 298.078 723.812 298.558C723.022 298.881 722.141 298.847 721.295 298.777C718.112 298.512 714.736 297.664 712.693 295.211C711.57 293.863 710.966 292.161 710.382 290.498C709.826 288.911 709.261 287.231 709.575 285.568C710.199 282.266 714.097 280.499 717.403 280.863Z" fill="#010102" fill-rule="nonzero" opacity="1" stroke="none" vectornator:layerName="path"/>
<path d="M1139.82 264.778C1140.84 262.966 1142.05 261.198 1143.76 260.026C1145.24 259.006 1147.41 260.111 1148.07 261.773C1148.74 263.436 1148.3 265.341 1147.67 267.033C1147.18 268.356 1146.59 269.638 1145.89 270.863C1145.01 272.407 1143.72 274.006 1141.96 274.121C1140.01 274.249 1138.41 272.336 1138.21 270.378C1138.01 268.421 1138.86 266.502 1139.82 264.778Z" fill="#010102" fill-rule="nonzero" opacity="1" stroke="none" vectornator:layerName="path"/>
<path d="M1033.03 434.912C1034.14 435.595 1034.53 437.089 1034.31 438.391C1034.09 439.693 1033.37 440.852 1032.67 441.973C1029.13 447.618 1025.6 453.262 1022.06 458.907C1021.38 460 1019.88 460.496 1018.7 460.023C1017.52 459.549 1016.79 458.159 1017.06 456.9C1017.17 456.369 1017.44 455.883 1017.7 455.406C1020.76 449.826 1023.82 444.246 1026.88 438.666C1027.53 437.477 1028.21 436.255 1029.27 435.415C1030.33 434.575 1031.89 434.213 1033.03 434.912Z" fill="#010102" fill-rule="nonzero" opacity="1" stroke="none" vectornator:layerName="path"/>
<path d="M1050.24 393.595C1051.04 392.28 1051.84 390.966 1052.63 389.651C1053.7 387.905 1056.43 387.769 1057.93 389.124C1059.42 390.48 1059.71 392.835 1059.04 394.765C1058.38 396.695 1056.91 398.252 1055.32 399.521C1053.71 400.799 1051.37 401.847 1049.75 400.632C1048.72 399.864 1048.4 398.405 1048.64 397.128C1048.87 395.851 1049.56 394.707 1050.24 393.595Z" fill="#010102" fill-rule="nonzero" opacity="1" stroke="none" vectornator:layerName="path"/>
<path d="M1131.95 301.544C1132.11 302.736 1132 304.082 1131.15 304.949C1130.16 305.969 1128.42 305.936 1127.27 305.132C1126.11 304.327 1125.49 302.933 1125.26 301.536C1125.03 300.166 1125.21 298.565 1126.29 297.685C1127.38 296.796 1129.07 296.995 1130.15 297.874C1131.22 298.754 1131.76 300.155 1131.95 301.544Z" fill="#010102" fill-rule="nonzero" opacity="1" stroke="none" vectornator:layerName="path"/>
<path d="M1037.84 421.248C1036.2 420.222 1034.65 418.601 1034.74 416.647C1034.78 415.814 1035.13 415.02 1035.55 414.299C1037.13 411.625 1040.81 409.709 1043.27 411.535C1045.29 413.031 1045.28 416.12 1044.43 418.517C1043.83 420.192 1042.68 421.936 1040.94 422.173C1039.84 422.322 1038.77 421.83 1037.84 421.248Z" fill="#010102" fill-rule="nonzero" opacity="1" stroke="none" vectornator:layerName="path"/>
<path d="M1126.37 285.478C1126.56 284.246 1127.16 282.947 1128.31 282.465C1130.33 281.612 1132.35 283.88 1132.75 286.041C1133.06 287.718 1132.72 289.758 1131.23 290.602C1129.94 291.333 1128.21 290.817 1127.29 289.679C1126.36 288.541 1126.14 286.943 1126.37 285.478Z" fill="#010102" fill-rule="nonzero" opacity="1" stroke="none" vectornator:layerName="path"/>
<path d="M288.256 360.375C322.427 321.18 358.616 283.652 398.102 249.902C402.993 245.722 408.113 241.5 414.231 239.614C420.349 237.729 427.766 238.743 431.739 243.718C434.533 247.216 435.179 251.989 435.152 256.504C435.02 278.39 421.893 297.917 409.285 315.896C393.666 338.17 378.047 360.444 362.428 382.718C368.854 386.15 374.152 391.653 377.362 398.228C378.308 400.166 379.071 402.488 378.124 404.448C376.617 407.567 371.933 407.392 369.135 405.43C366.337 403.469 364.482 400.363 361.652 398.449C356.941 395.262 350.384 396.084 345.408 398.959C340.433 401.834 336.688 406.419 333.062 410.901C324.58 421.385 316.098 431.87 307.616 442.354C306.406 443.85 305.063 445.434 303.209 445.897C298.051 447.186 295.721 439.869 295.027 434.587C293.087 419.825 285.172 406.021 273.48 397.009C271.386 395.394 268.124 394.029 266.36 396.046C224.639 443.754 166.511 474.312 106.529 493.607C94.3081 497.539 81.4804 501.085 68.8654 499.146C67.4845 494.895 73.2788 492.094 77.6735 491.291C144.937 478.998 208.433 445.311 256.791 396.263C260.529 392.472 259.491 385.785 256 381.847C252.509 377.91 247.322 376.037 242.357 374.309C232.929 371.028 223.501 367.747 214.073 364.465C210.712 363.295 207.039 361.861 205.442 358.666C203.845 355.47 206.371 350.404 209.825 351.271C226.482 355.451 243.139 359.631 259.796 363.812C269.543 366.258 281.57 368.044 288.256 360.375M424.996 268.519C427.21 262.414 428.178 254.38 423.004 250.6C417.829 246.819 410.549 250.189 405.229 253.89C388.36 265.625 373.92 280.512 359.598 295.297C353.331 301.767 347.064 308.237 340.797 314.707C336.197 319.456 331.596 324.205 327.082 329.038C321.252 335.278 315.568 341.654 309.884 348.029C304.748 353.789 299.612 359.55 294.476 365.311C294.019 365.823 293.541 366.381 293.452 367.061C293.224 368.79 295.413 369.653 297.121 369.915C313.131 372.373 329.142 374.83 345.152 377.288C347.63 377.668 350.279 378.026 352.565 376.951C354.405 376.086 355.73 374.417 356.978 372.801C375.559 348.766 393.021 323.859 409.287 298.192C415.29 288.719 421.172 279.057 424.996 268.519M282.052 392.773C292.368 401.258 301.762 411.775 305.213 424.77C305.503 425.864 306.901 426.315 307.983 425.983C309.066 425.651 309.892 424.779 310.665 423.942C317.157 416.908 323.649 409.875 330.142 402.841C333.524 399.177 337.07 395.181 337.777 390.251C331.401 384.714 322.549 383.278 314.182 382.056C306.933 380.997 299.684 379.939 292.435 378.88C289.199 378.407 285.822 377.946 282.7 378.983C279.578 380.02 276.824 383.051 277.241 386.318C277.592 389.067 279.93 391.028 282.052 392.773Z" fill="#010102" fill-rule="nonzero" opacity="1" stroke="none" vectornator:layerName="path"/>
</g>
<path d="M134.2 0L1145.8 0C1162.37 0 1175.8 13.4315 1175.8 30L1175.8 47.1998C1175.8 63.7683 1162.37 77.1998 1145.8 77.1998L134.2 77.1998C117.631 77.1998 104.2 63.7683 104.2 47.1998L104.2 30C104.2 13.4315 117.631 0 134.2 0Z" fill="#010102" fill-rule="nonzero" opacity="0" stroke="#000000" stroke-linecap="butt" stroke-linejoin="round" stroke-width="7.18719"/>
<g opacity="1">
<path d="M182.945 5.54358L1097.06 5.54358C1113.22 5.54358 1126.32 20.0141 1126.32 37.8645L1126.32 127.622C1126.32 145.473 1113.22 159.943 1097.06 159.943L182.945 159.943C166.783 159.943 153.682 145.473 153.682 127.622L153.682 37.8645C153.682 20.0141 166.783 5.54358 182.945 5.54358Z" fill="#ffffff" fill-rule="nonzero" opacity="1" stroke="#ffffff" stroke-linecap="butt" stroke-linejoin="round" stroke-width="7.18719"/>
<g opacity="1">
<path d="M204.258 124.182L275.147 124.182C280.026 124.182 283.764 122.888 286.359 120.3C288.953 117.712 290.251 113.999 290.251 109.162L290.251 58.0104C290.251 53.173 288.953 49.4604 286.359 46.8725C283.764 44.2846 280.026 42.9907 275.147 42.9907L204.258 42.9907C199.393 42.9907 195.659 44.2846 193.057 46.8725C190.455 49.4604 189.154 53.173 189.154 58.0104L189.154 109.162C189.154 113.999 190.455 117.712 193.057 120.3C195.659 122.888 199.393 124.182 204.258 124.182Z" fill="#000000" opacity="0" stroke="none"/>
<path d="M266.26 124.182L337.148 124.182C342.028 124.182 345.765 122.888 348.36 120.3C350.955 117.712 352.253 113.999 352.253 109.162L352.253 58.0104C352.253 53.173 350.955 49.4604 348.36 46.8725C345.765 44.2846 342.028 42.9907 337.148 42.9907L266.26 42.9907C261.394 42.9907 257.661 44.2846 255.059 46.8725C252.457 49.4604 251.156 53.173 251.156 58.0104L251.156 109.162C251.156 113.999 252.457 117.712 255.059 120.3C257.661 122.888 261.394 124.182 266.26 124.182Z" fill="#000000" opacity="0" stroke="none"/>
<g opacity="0">
<path d="M241.679 91.9386C243.167 90.561 244.305 88.9847 245.091 87.2097C245.877 85.4347 246.307 83.5918 246.381 81.6811C246.455 79.7704 246.169 77.8998 245.522 76.0693C244.875 74.2389 243.863 72.5794 242.485 71.0909C241.101 69.5957 239.522 68.4549 237.747 67.6686C235.972 66.8824 234.128 66.4506 232.214 66.3732C230.3 66.2959 228.431 66.584 226.607 67.2376C224.783 67.8911 223.126 68.9067 221.638 70.2843C220.142 71.6682 219 73.2426 218.211 75.0077C217.422 76.7728 216.99 78.614 216.916 80.5312C216.842 82.4485 217.13 84.3207 217.78 86.1481C218.43 87.9754 219.447 89.6367 220.831 91.1319C222.209 92.6204 223.783 93.7594 225.555 94.5488C227.326 95.3382 229.169 95.7683 231.083 95.8391C232.998 95.9098 234.868 95.6234 236.695 94.9798C238.522 94.3362 240.183 93.3224 241.679 91.9386ZM247.114 97.8109C244.816 99.937 242.258 101.494 239.437 102.483C236.617 103.472 233.73 103.91 230.775 103.799C227.821 103.688 224.976 103.028 222.241 101.818C219.506 100.608 217.079 98.8573 214.959 96.5668C212.833 94.2695 211.272 91.7107 210.277 88.8903C209.282 86.0699 208.843 83.1826 208.961 80.2283C209.078 77.274 209.742 74.4294 210.952 71.6943C212.162 68.9593 213.912 66.5318 216.203 64.412C218.493 62.2921 221.049 60.7346 223.869 59.7395C226.69 58.7444 229.579 58.3041 232.536 58.4185C235.494 58.533 238.339 59.1935 241.071 60.4002C243.803 61.6068 246.232 63.3588 248.358 65.6561C250.478 67.9466 252.035 70.502 253.03 73.3224C254.025 76.1428 254.464 79.0301 254.346 81.9844C254.229 84.9386 253.567 87.785 252.36 90.5235C251.153 93.2619 249.404 95.6911 247.114 97.8109ZM272.224 87.0062C271.667 87.522 271.037 87.9252 270.335 88.2159C269.632 88.5065 268.888 88.6367 268.103 88.6063L248.296 87.8203L248.838 76.3598L268.567 77.1232C269.372 77.1478 270.105 77.3302 270.767 77.6703C271.429 78.0105 272.008 78.449 272.505 78.986C273.235 79.7744 273.709 80.6512 273.927 81.6165C274.145 82.5817 274.113 83.5389 273.831 84.488C273.548 85.4371 273.013 86.2765 272.224 87.0062Z" fill="#ffffff" opacity="1" stroke="none" vectornator:layerName="Text"/>
<path d="M290.379 95.9162C292.407 95.9162 294.311 95.5321 296.093 94.7638C297.875 93.9955 299.441 92.9357 300.793 91.5843C302.144 90.2329 303.204 88.6663 303.972 86.8845C304.74 85.1027 305.124 83.1982 305.124 81.1711C305.124 79.1348 304.74 77.2257 303.972 75.4439C303.204 73.6621 302.144 72.0932 300.793 70.7372C299.441 69.3811 297.875 68.3236 296.093 67.5646C294.311 66.8056 292.407 66.4261 290.379 66.4261C288.343 66.4261 286.436 66.8056 284.659 67.5646C282.882 68.3236 281.315 69.3811 279.959 70.7372C278.603 72.0932 277.543 73.6621 276.78 75.4439C276.016 77.2257 275.634 79.1348 275.634 81.1711C275.634 83.1982 276.016 85.1027 276.78 86.8845C277.543 88.6663 278.603 90.2329 279.959 91.5843C281.315 92.9357 282.882 93.9955 284.659 94.7638C286.436 95.5321 288.343 95.9162 290.379 95.9162ZM290.379 103.913C287.251 103.913 284.317 103.319 281.577 102.129C278.837 100.94 276.421 99.3016 274.329 97.2144C272.237 95.1271 270.599 92.7112 269.414 89.9668C268.229 87.2224 267.637 84.2905 267.637 81.1711C267.637 78.0426 268.229 75.1061 269.414 72.3616C270.599 69.6172 272.237 67.2013 274.329 65.1141C276.421 63.0268 278.839 61.3908 281.584 60.206C284.328 59.0212 287.26 58.4288 290.379 58.4288C293.499 58.4288 296.431 59.0212 299.175 60.206C301.92 61.3908 304.338 63.0291 306.43 65.121C308.521 67.2129 310.16 69.6287 311.345 72.3686C312.529 75.1084 313.122 78.0426 313.122 81.1711C313.122 84.2905 312.529 87.2224 311.345 89.9668C310.16 92.7112 308.521 95.1271 306.43 97.2144C304.338 99.3016 301.92 100.94 299.175 102.129C296.431 103.319 293.499 103.913 290.379 103.913ZM316.135 113.035C315.376 113.035 314.64 112.904 313.927 112.64C313.214 112.376 312.58 111.966 312.025 111.411L298.03 97.3879L306.207 89.349L320.161 103.303C320.735 103.867 321.149 104.499 321.404 105.198C321.658 105.897 321.786 106.612 321.786 107.343C321.786 108.417 321.538 109.382 321.043 110.238C320.548 111.094 319.874 111.774 319.023 112.279C318.171 112.783 317.208 113.035 316.135 113.035Z" fill="#ffffff" opacity="1" stroke="none" vectornator:layerName="Text"/>
</g>
<g opacity="1">
<path d="M188.344 15.3125C179.777 16.7618 182.432 15.8502 179.75 16.7812C171.096 19.7852 164.492 27.3376 162.656 36.3125C161.867 40.1709 162.125 44.1486 162.125 48.0625C162.125 53.7515 162.125 59.436 162.125 65.125C162.126 79.6156 162.124 94.1031 162.125 108.594C162.125 112.22 162.125 115.873 162.125 119.5C162.125 122.113 162.13 124.678 162.656 127.25C164.674 137.114 172.455 145.158 182.25 147.5C186.254 148.457 190.385 148.219 194.469 148.219C199.017 148.219 203.546 148.219 208.094 148.219C224.265 148.218 240.454 148.219 256.625 148.219C307.389 148.217 358.143 148.221 408.906 148.219C572.357 148.212 735.799 148.184 899.25 148.156C954.152 148.147 1009.07 148.134 1063.97 148.125C1070.27 148.124 1076.55 148.126 1082.84 148.125C1085.18 148.125 1087.51 148.125 1089.84 148.125C1091.92 148.125 1093.98 148.1 1096.03 147.75C1104.45 146.314 1111.8 140.663 1115.38 132.906C1116.46 130.559 1117.19 128.062 1117.53 125.5C1117.98 122.199 1117.78 118.791 1117.78 115.469C1117.78 110.826 1117.78 106.174 1117.78 101.531C1117.78 86.6362 1117.75 71.7701 1117.75 56.875C1117.75 53.0036 1117.75 49.1213 1117.75 45.25C1117.75 42.2529 1117.82 39.2955 1117.22 36.3438C1116.31 31.9046 1114.24 27.7137 1111.25 24.3125C1107.12 19.6234 1101.35 16.5235 1095.16 15.6875C1092.97 15.3928 1090.76 15.4371 1088.56 15.4375C1086.04 15.4379 1083.53 15.4371 1081 15.4375C1070.89 15.4392 1060.79 15.467 1050.69 15.4688C996.708 15.4779 942.729 15.4596 888.75 15.4688C733.292 15.4951 577.832 15.5282 422.375 15.5312C370.397 15.5323 318.416 15.5302 266.438 15.5312C249.073 15.5316 231.708 15.5309 214.344 15.5312C208.856 15.5314 211.867 15.5308 189.5 15.5312C189.124 15.4149 188.758 15.3059 188.344 15.3125ZM189.406 22.75C196.656 22.7501 195.723 22.7499 198.875 22.75C204.025 22.7501 209.193 22.7499 214.344 22.75C230.143 22.7503 245.95 22.7497 261.75 22.75C309.714 22.751 357.661 22.749 405.625 22.75C550.123 22.7529 694.627 22.7567 839.125 22.7812C900.547 22.7917 961.953 22.8021 1023.38 22.8125C1040.56 22.8154 1057.76 22.8408 1074.94 22.8438C1078.98 22.8444 1083.02 22.8431 1087.06 22.8438C1089.21 22.8441 1091.39 22.7197 1093.53 22.9375C1095.78 23.1664 1097.98 23.7955 1100 24.8125C1101.61 25.6249 1103.12 26.668 1104.44 27.9062C1107.09 30.4002 1109 33.6426 1109.84 37.1875C1110.48 39.8367 1110.38 42.5459 1110.38 45.25C1110.37 48.4795 1110.38 51.708 1110.38 54.9375C1110.37 70.4744 1110.35 85.9944 1110.34 101.531C1110.34 106.534 1110.34 111.56 1110.34 116.562C1110.34 118.988 1110.5 121.459 1110.25 123.875C1110.04 125.925 1109.49 127.941 1108.62 129.812C1106.06 135.364 1100.81 139.379 1094.78 140.406C1093.14 140.685 1091.5 140.688 1089.84 140.688C1088.09 140.687 1086.35 140.688 1084.59 140.688C1079.42 140.687 1074.24 140.688 1069.06 140.688C1065.12 140.687 1061.16 140.688 1057.22 140.688C1002.45 140.678 947.704 140.666 892.938 140.656C732.331 140.629 571.701 140.6 411.094 140.594C360.1 140.592 309.118 140.596 258.125 140.594C241.954 140.593 225.796 140.594 209.625 140.594C204.572 140.594 199.522 140.594 194.469 140.594C191.218 140.594 187.835 140.876 184.625 140.219C182.639 139.812 180.718 139.086 178.969 138.062C177.593 137.258 176.346 136.252 175.219 135.125C172.358 132.264 170.447 128.512 169.906 124.5C169.579 122.074 169.75 119.565 169.75 117.125C169.75 113.027 169.75 108.942 169.75 104.844C169.751 89.1591 169.749 73.4659 169.75 57.7812C169.75 53.8251 169.75 49.8624 169.75 45.9062C169.75 43.6313 169.601 41.324 169.906 39.0625C170.529 34.4494 172.944 30.1787 176.531 27.2188C177.764 26.2018 179.142 25.3254 180.594 24.6562C182.075 23.9731 180.569 24.6765 188.438 22.9688C188.778 22.9634 189.094 22.8384 189.406 22.75Z" fill="#000000" stroke="none"/>
</g>
</g>
</g>
</g>
<g id="Layer-2" vectornator:layerName="Layer 2" visibility="hidden">
<g opacity="1">
<path d="M198.6 33.008L326.7 33.008C337.482 33.008 346.222 42.3521 346.222 53.8786L346.222 111.608C346.222 123.135 337.482 132.479 326.7 132.479L198.6 132.479C187.818 132.479 179.077 123.135 179.077 111.608L179.077 53.8786C179.077 42.3521 187.818 33.008 198.6 33.008Z" fill="#000000" fill-rule="nonzero" opacity="1" stroke="#000000" stroke-linecap="butt" stroke-linejoin="round" stroke-width="0.831349"/>
<g opacity="1">
<path d="M284.086 84.5209L251.686 84.0538C251.366 86.4404 250.578 88.8325 249.321 91.2301C248.064 93.6276 246.357 95.87 244.2 97.9571C238.809 103.173 232.43 105.718 225.066 105.592C217.701 105.467 211.459 102.759 206.341 97.4687C201.223 92.1784 198.725 85.849 198.847 78.4804C198.969 71.1118 201.687 64.8572 207.001 59.7166C212.314 54.576 218.644 52.078 225.989 52.2226C233.334 52.3673 239.569 55.0882 244.694 60.3854C246.725 62.4851 248.32 64.7193 249.479 67.0878C250.637 69.4564 251.401 72.0027 251.771 74.7267L284.379 75.1282C285.689 75.1703 286.78 75.6426 287.653 76.5451C288.526 77.4477 288.929 78.5624 288.861 79.8892C288.871 81.2466 288.406 82.38 287.466 83.2894C286.527 84.1987 285.4 84.6092 284.086 84.5209ZM237.768 91.4C241.275 88.0078 243.047 83.9252 243.086 79.1522C243.125 74.3792 241.457 70.2488 238.083 66.761C234.709 63.2732 230.632 61.473 225.854 61.3603C221.075 61.2477 216.939 62.8808 213.447 66.2597C209.915 69.6763 208.105 73.7957 208.015 78.6178C207.926 83.4398 209.568 87.5947 212.942 91.0825C216.317 94.5703 220.412 96.3527 225.227 96.4296C230.043 96.5064 234.223 94.8299 237.768 91.4Z" fill="#ffffff" fill-rule="nonzero" opacity="1" stroke="none" vectornator:layerName="path"/>
<path d="M265.98 78.5569C265.98 68.3267 274.836 60.0334 285.76 60.0334C296.683 60.0334 305.539 68.3267 305.539 78.5569C305.539 88.7872 296.683 97.0805 285.76 97.0805C274.836 97.0805 265.98 88.7872 265.98 78.5569Z" fill="#010102" fill-rule="nonzero" opacity="1" stroke="none"/>
<path d="M309.824 117.723L286.863 94.8592C284.974 96.3524 282.744 97.5236 280.174 98.373C277.603 99.2222 274.817 99.6469 271.816 99.6469C264.314 99.6469 257.96 97.0413 252.755 91.8302C247.549 86.6191 244.946 80.3332 244.946 72.9725C244.946 65.6118 247.551 59.3259 252.762 54.1148C257.974 48.9037 264.276 46.2982 271.669 46.2982C279.062 46.2982 285.348 48.9037 290.527 54.1148C295.705 59.3259 298.295 65.6167 298.295 72.9872C298.295 75.9087 297.887 78.6233 297.073 81.1312C296.259 83.639 295.038 86.0003 293.409 88.215L316.566 111.176C317.478 112.117 317.934 113.215 317.934 114.471C317.934 115.727 317.448 116.808 316.477 117.714C315.54 118.697 314.418 119.189 313.11 119.189C311.803 119.189 310.707 118.7 309.824 117.723ZM271.752 90.4623C276.631 90.4623 280.744 88.7606 284.09 85.3571C287.437 81.9535 289.11 77.8254 289.11 72.9725C289.11 68.1197 287.432 63.9915 284.076 60.588C280.72 57.1845 276.612 55.4827 271.752 55.4827C266.839 55.4827 262.673 57.1845 259.256 60.588C255.839 63.9915 254.13 68.1197 254.13 72.9725C254.13 77.8254 255.834 81.9535 259.242 85.3571C262.649 88.7606 266.819 90.4623 271.752 90.4623Z" fill="#000000" fill-rule="nonzero" opacity="0" stroke="none" vectornator:layerName="path"/>
<path d="M286.68 52.2159C279.287 52.2159 272.985 54.8214 267.774 60.0325C262.563 65.2436 259.957 71.5295 259.957 78.8902C259.957 86.2509 262.562 92.5368 267.768 97.7479C272.974 102.959 279.325 105.565 286.827 105.565C289.829 105.565 292.617 105.141 295.187 104.291C297.757 103.442 299.985 102.27 301.874 100.777L308.42 94.1327C310.049 91.918 311.27 89.5567 312.084 87.0489C312.899 84.541 313.306 81.827 313.306 78.9055C313.306 71.535 310.717 65.2436 305.538 60.0325C300.359 54.8214 294.074 52.2159 286.68 52.2159ZM286.766 61.4005C291.625 61.4005 295.733 63.1022 299.089 66.5057C302.445 69.9092 304.121 74.0374 304.121 78.8902C304.121 83.7431 302.448 87.8713 299.101 91.2748C295.755 94.6783 291.645 96.38 286.766 96.38C281.833 96.38 277.661 94.6783 274.253 91.2748C270.846 87.8713 269.142 83.7431 269.142 78.8902C269.142 74.0374 270.851 69.9092 274.268 66.5057C277.685 63.1022 281.852 61.4005 286.766 61.4005Z" fill="#ffffff" fill-rule="nonzero" opacity="1" stroke="none"/>
<path d="M306.425 92.3376L300.155 99.2765L318.347 117.391C319.23 118.368 320.327 118.856 321.635 118.856C322.943 118.856 324.064 118.364 325 117.381C325.971 116.475 326.456 115.394 326.456 114.139C326.456 112.883 326 111.785 325.088 110.844L306.425 92.3376Z" fill="#ffffff" fill-rule="nonzero" opacity="0" stroke="none"/>
<path d="M251.488 71.3115L261.856 71.3115C263.475 71.3115 264.787 72.4472 264.787 73.8481L264.787 82.8204C264.787 84.2213 263.475 85.3571 261.856 85.3571L251.488 85.3571C249.869 85.3571 248.557 84.2213 248.557 82.8204L248.557 73.8481C248.557 72.4472 249.869 71.3115 251.488 71.3115Z" fill="#ffffff" fill-rule="nonzero" opacity="1" stroke="none"/>
<g opacity="1">
<path d="M310.648 92.5486L318.922 100.539C320.214 101.787 320.473 103.615 319.499 104.623L313.267 111.077C312.294 112.085 310.457 111.89 309.165 110.642L300.891 102.652C299.599 101.405 299.341 99.5762 300.314 98.5684L306.547 92.1143C307.52 91.1065 309.356 91.301 310.648 92.5486Z" fill="#ffffff" fill-rule="nonzero" opacity="1" stroke="none"/>
<path d="M318.529 100.159L323.995 105.437C326.72 108.069 326.795 112.411 324.164 115.136L323.937 115.371C321.305 118.096 316.963 118.172 314.238 115.541L308.772 110.262C306.047 107.631 305.971 103.288 308.602 100.563L308.829 100.328C311.461 97.6029 315.804 97.5271 318.529 100.159Z" fill="#ffffff" fill-rule="nonzero" opacity="1" stroke="none"/>
</g>
</g>
</g>
</g>
<g id="Layer-3" vectornator:layerName="Layer 3">
<g opacity="1">
<path d="M66.7452 30.1059L726.249 30.1059C740.443 30.1059 751.949 43.5373 751.949 60.1059L751.949 105.381C751.949 121.949 740.443 135.381 726.249 135.381L66.7452 135.381C52.5518 135.381 41.0458 121.949 41.0458 105.381L41.0458 60.1059C41.0458 43.5373 52.5518 30.1059 66.7452 30.1059Z" fill="#ffffff" fill-rule="nonzero" opacity="1" stroke="#000000" stroke-linecap="butt" stroke-linejoin="round" stroke-width="6.48876"/>
<g opacity="1">
<path d="M75.3213 30.1059L183.668 30.1059C202.598 30.1059 217.944 45.4516 217.944 64.3814L217.944 101.105C217.944 120.035 202.598 135.381 183.668 135.381L75.3213 135.381C56.3914 135.381 41.0458 120.035 41.0458 101.105L41.0458 64.3814C41.0458 45.4516 56.3914 30.1059 75.3213 30.1059Z" fill="#000000" fill-rule="nonzero" opacity="1" stroke="#000000" stroke-linecap="butt" stroke-linejoin="round" stroke-width="0.879859"/>
<g opacity="1">
<path d="M149.489 84.4013L119.268 83.9656C118.97 86.1917 118.235 88.4228 117.063 90.6591C115.891 92.8954 114.298 94.9869 112.286 96.9336C107.258 101.799 101.308 104.172 94.4391 104.055C87.5697 103.938 81.7482 101.412 76.9746 96.478C72.201 91.5437 69.871 85.6401 69.9848 78.7672C70.0985 71.8943 72.6335 66.0605 77.5897 61.2657C82.5458 56.4709 88.4494 54.141 95.3005 54.2759C102.152 54.4108 107.967 56.9486 112.747 61.8895C114.642 63.848 116.129 65.9318 117.21 68.141C118.291 70.3502 119.003 72.7252 119.348 75.266L149.762 75.6405C150.984 75.6797 152.002 76.1203 152.816 76.9621C153.631 77.804 154.006 78.8437 153.943 80.0812C153.952 81.3473 153.519 82.4044 152.642 83.2526C151.765 84.1008 150.714 84.4837 149.489 84.4013ZM106.287 90.8176C109.558 87.6536 111.211 83.8457 111.247 79.3938C111.283 74.9419 109.728 71.0893 106.581 67.8362C103.433 64.583 99.6312 62.9039 95.1741 62.7989C90.717 62.6938 86.8597 64.2171 83.602 67.3686C80.308 70.5554 78.6193 74.3976 78.5358 78.8953C78.4524 83.393 79.9844 87.2684 83.1316 90.5215C86.2788 93.7747 90.0982 95.4371 94.5897 95.5089C99.0813 95.5805 102.98 94.0168 106.287 90.8176Z" fill="#ffffff" fill-rule="nonzero" opacity="1" stroke="none" vectornator:layerName="path"/>
<path d="M132.601 78.8386C132.601 69.2965 140.861 61.5612 151.05 61.5612C161.239 61.5612 169.499 69.2965 169.499 78.8386C169.499 88.3806 161.239 96.116 151.05 96.116C140.861 96.116 132.601 88.3806 132.601 78.8386Z" fill="#010102" fill-rule="nonzero" opacity="1" stroke="#000000" stroke-linecap="butt" stroke-linejoin="round" stroke-width="0.775421"/>
<path d="M173.496 115.37L152.079 94.0441C150.317 95.4368 148.237 96.5293 145.84 97.3215C143.442 98.1136 140.844 98.5097 138.044 98.5097C131.047 98.5097 125.121 96.0795 120.265 91.2189C115.41 86.3584 112.982 80.4954 112.982 73.6298C112.982 66.7643 115.412 60.9013 120.273 56.0408C125.133 51.1802 131.011 48.75 137.907 48.75C144.803 48.75 150.666 51.1802 155.496 56.0408C160.327 60.9013 162.742 66.7689 162.742 73.6435C162.742 76.3685 162.362 78.9005 161.602 81.2396C160.843 83.5788 159.704 85.7812 158.185 87.8469L179.784 109.264C180.635 110.141 181.06 111.165 181.06 112.337C181.06 113.508 180.607 114.516 179.701 115.362C178.827 116.278 177.781 116.737 176.561 116.737C175.341 116.737 174.319 116.281 173.496 115.37ZM137.985 89.943C142.536 89.943 146.372 88.3558 149.493 85.1812C152.614 82.0067 154.175 78.1562 154.175 73.6298C154.175 69.1035 152.61 65.253 149.48 62.0785C146.349 58.9039 142.518 57.3167 137.985 57.3167C133.402 57.3167 129.517 58.9039 126.329 62.0785C123.142 65.253 121.549 69.1035 121.549 73.6298C121.549 78.1562 123.138 82.0067 126.316 85.1812C129.494 88.3558 133.384 89.943 137.985 89.943Z" fill="#000000" fill-rule="nonzero" opacity="0" stroke="none" vectornator:layerName="path"/>
<path d="M151.909 54.2696C145.013 54.2696 139.135 56.6998 134.274 61.5604C129.414 66.4209 126.983 72.2839 126.983 79.1494C126.983 86.015 129.413 91.878 134.268 96.7385C139.124 101.599 145.049 104.029 152.046 104.029C154.845 104.029 157.446 103.634 159.843 102.842C162.241 102.05 164.318 100.956 166.08 99.5637L172.186 93.3665C173.705 91.3008 174.844 89.0984 175.604 86.7592C176.363 84.4201 176.743 81.8886 176.743 79.1637C176.743 72.2891 174.328 66.4209 169.498 61.5604C164.668 56.6998 158.805 54.2696 151.909 54.2696ZM151.989 62.8363C156.521 62.8363 160.353 64.4235 163.483 67.5981C166.613 70.7726 168.176 74.6231 168.176 79.1494C168.176 83.6758 166.616 87.5263 163.494 90.7008C160.373 93.8754 156.539 95.4626 151.989 95.4626C147.387 95.4626 143.496 93.8754 140.318 90.7008C137.139 87.5263 135.55 83.6758 135.55 79.1494C135.55 74.6231 137.145 70.7726 140.332 67.5981C143.519 64.4235 147.405 62.8363 151.989 62.8363Z" fill="#ffffff" fill-rule="nonzero" opacity="1" stroke="none"/>
<path d="M170.325 91.6921L164.477 98.1642L181.445 115.06C182.268 115.971 183.292 116.427 184.512 116.427C185.732 116.427 186.777 115.968 187.65 115.051C188.557 114.206 189.009 113.198 189.009 112.027C189.009 110.855 188.584 109.831 187.733 108.954L170.325 91.6921Z" fill="#ffffff" fill-rule="nonzero" opacity="0" stroke="none"/>
<g opacity="1">
<path d="M174.264 91.889L181.982 99.3417C183.187 100.505 183.428 102.211 182.52 103.151L176.707 109.171C175.799 110.111 174.086 109.929 172.881 108.766L165.164 101.313C163.959 100.149 163.718 98.4438 164.625 97.5038L170.439 91.4839C171.346 90.5439 173.059 90.7253 174.264 91.889Z" fill="#ffffff" fill-rule="nonzero" opacity="1" stroke="none"/>
<path d="M181.615 98.9872L186.713 103.91C189.255 106.365 189.325 110.415 186.871 112.957L186.659 113.176C184.204 115.718 180.154 115.789 177.612 113.334L172.514 108.411C169.972 105.956 169.902 101.906 172.356 99.3642L172.568 99.1451C175.022 96.6033 179.073 96.5326 181.615 98.9872Z" fill="#ffffff" fill-rule="nonzero" opacity="1" stroke="none"/>
</g>
<path d="M119.084 72.0805L128.754 72.0805C130.264 72.0805 131.488 73.1398 131.488 74.4465L131.488 82.8152C131.488 84.1219 130.264 85.1812 128.754 85.1812L119.084 85.1812C117.574 85.1812 116.35 84.1219 116.35 82.8152L116.35 74.4465C116.35 73.1398 117.574 72.0805 119.084 72.0805Z" fill="#ffffff" fill-rule="nonzero" opacity="1" stroke="none" vectornator:layerName="Rectangle"/>
</g>
</g>
<g fill="#010102" opacity="1" stroke="none">
<path d="M240.67 101.709C240.67 101.075 240.696 100.476 240.749 99.9122C240.802 99.3483 240.899 98.8726 241.04 98.485C241.991 98.4145 242.723 98.2295 243.234 97.9299C243.745 97.6304 244.106 97.093 244.317 96.3177C244.529 95.5424 244.634 94.3971 244.634 92.8818L244.634 74.1164C244.634 72.742 244.537 71.6936 244.344 70.9712C244.15 70.2488 243.789 69.7466 243.26 69.4647C242.731 69.1828 241.991 68.9889 241.04 68.8832C240.899 68.4956 240.811 67.9846 240.776 67.3503C240.74 66.7159 240.723 66.1521 240.723 65.6587C241.428 65.694 242.309 65.7204 243.366 65.738C244.423 65.7557 245.542 65.7733 246.722 65.7909C247.903 65.8085 249.004 65.8173 250.026 65.8173C250.907 65.8173 251.841 65.7997 252.828 65.7645C253.814 65.7292 254.836 65.7116 255.894 65.7116C257.867 65.7116 259.805 65.8438 261.708 66.1081C263.611 66.3724 265.391 66.8569 267.047 67.5617C268.703 68.2665 270.157 69.262 271.408 70.5483C272.659 71.8346 273.646 73.4733 274.368 75.4643C275.091 77.4554 275.452 79.8958 275.452 82.7855C275.452 85.6399 275.1 88.0891 274.395 90.133C273.69 92.177 272.756 93.8861 271.593 95.2605C270.43 96.6349 269.135 97.7449 267.708 98.5907C266.281 99.4364 264.827 100.071 263.347 100.494C261.867 100.917 260.466 101.198 259.145 101.339C257.823 101.48 256.704 101.551 255.788 101.551C254.836 101.551 253.638 101.56 252.193 101.577C250.749 101.595 249.268 101.613 247.753 101.63C246.238 101.648 244.837 101.665 243.551 101.683C242.265 101.701 241.304 101.709 240.67 101.709ZM256.951 98.3264C258.149 98.3264 259.365 98.1414 260.598 97.7713C261.832 97.4013 262.95 96.6965 263.955 95.6569C264.959 94.6174 265.761 93.1373 266.36 91.2167C266.959 89.2961 267.259 86.7852 267.259 83.6841C267.259 80.8296 266.933 78.4421 266.281 76.5215C265.629 74.6009 264.748 73.0768 263.638 71.9491C262.528 70.8214 261.268 70.0021 259.858 69.4911C258.449 68.9801 256.986 68.7246 255.471 68.7246C254.801 68.7246 254.114 68.8039 253.409 68.9625C252.704 69.1211 252.211 69.3061 251.929 69.5175L252.511 67.6674L252.511 92.7761C252.511 94.2561 252.634 95.3926 252.881 96.1855C253.127 96.9784 253.577 97.5335 254.229 97.8506C254.88 98.1678 255.788 98.3264 256.951 98.3264Z"/>
<path d="M285.818 74.1164C285.818 72.742 285.73 71.6936 285.554 70.9712C285.377 70.2488 285.034 69.7466 284.523 69.4647C284.012 69.1828 283.281 68.9889 282.329 68.8832C282.188 68.4956 282.082 68.0022 282.012 67.4031C281.942 66.804 281.906 66.2226 281.906 65.6587C282.541 65.694 283.325 65.7204 284.259 65.738C285.192 65.7557 286.17 65.7733 287.192 65.7909C288.214 65.8085 289.13 65.8173 289.941 65.8173C290.752 65.8173 291.615 65.8085 292.531 65.7909C293.447 65.7733 294.355 65.7557 295.253 65.738C296.152 65.7204 296.954 65.694 297.659 65.6587C297.659 66.2578 297.641 66.8217 297.606 67.3503C297.571 67.8789 297.465 68.3899 297.289 68.8832C296.337 68.9537 295.606 69.1387 295.095 69.4383C294.584 69.7378 294.232 70.2488 294.038 70.9712C293.844 71.6936 293.747 72.742 293.747 74.1164L293.747 93.1989C293.747 94.5733 293.844 95.6393 294.038 96.397C294.232 97.1546 294.593 97.6744 295.121 97.9564C295.65 98.2383 296.372 98.4145 297.289 98.485C297.43 98.8374 297.526 99.3131 297.579 99.9122C297.632 100.511 297.659 101.11 297.659 101.709C296.742 101.639 295.632 101.595 294.328 101.577C293.025 101.56 291.65 101.551 290.205 101.551C288.76 101.551 287.289 101.56 285.791 101.577C284.294 101.595 282.999 101.639 281.906 101.709C281.906 101.146 281.95 100.564 282.038 99.965C282.127 99.366 282.223 98.8726 282.329 98.485C283.281 98.4145 284.012 98.2383 284.523 97.9564C285.034 97.6744 285.377 97.1546 285.554 96.397C285.73 95.6393 285.818 94.5733 285.818 93.1989L285.818 74.1164Z"/>
<path d="M316.694 102.027C314.403 102.027 312.297 101.745 310.377 101.181C308.456 100.617 306.58 99.8417 304.747 98.855C305.029 97.4454 305.205 96.0181 305.276 94.5733C305.346 93.1285 305.382 91.8069 305.382 90.6088C306.086 90.3973 306.862 90.2564 307.707 90.1859C308.553 90.1154 309.364 90.0802 310.139 90.0802C310.28 92.0889 310.571 93.7187 311.011 94.9698C311.452 96.2208 312.148 97.1282 313.099 97.6921C314.051 98.2559 315.319 98.5378 316.905 98.5378C318.984 98.5378 320.482 98.0885 321.398 97.1899C322.314 96.2913 322.773 95.2605 322.773 94.0976C322.773 92.8642 322.35 91.8334 321.504 91.0052C320.658 90.1771 319.583 89.4459 318.279 88.8115C316.976 88.1772 315.592 87.5253 314.13 86.8557C312.667 86.1861 311.276 85.3756 309.954 84.4241C308.632 83.4726 307.558 82.2921 306.73 80.8825C305.901 79.4729 305.487 77.7109 305.487 75.5965C305.487 73.2706 306.007 71.35 307.047 69.8347C308.086 68.3194 309.496 67.1917 311.276 66.4516C313.055 65.7116 315.055 65.3416 317.275 65.3416C318.579 65.3416 319.865 65.4473 321.134 65.6587C322.403 65.8702 323.566 66.1433 324.623 66.4781C325.68 66.8129 326.526 67.2093 327.16 67.6674C327.16 68.9361 327.186 70.284 327.239 71.7112C327.292 73.1385 327.389 74.2926 327.53 75.1736C326.966 75.4907 326.235 75.711 325.336 75.8343C324.438 75.9577 323.636 76.0194 322.931 76.0194C322.614 74.0459 322.182 72.5306 321.636 71.4734C321.09 70.4162 320.42 69.6849 319.627 69.2797C318.835 68.8744 317.909 68.6718 316.852 68.6718C315.407 68.6718 314.227 69.0154 313.311 69.7026C312.394 70.3897 311.936 71.4029 311.936 72.742C311.936 74.0459 312.368 75.1383 313.231 76.0194C314.095 76.9004 315.205 77.6756 316.562 78.3452C317.918 79.0148 319.363 79.702 320.896 80.4068C322.429 81.1116 323.874 81.9309 325.231 82.8648C326.587 83.7986 327.697 84.9527 328.561 86.3271C329.424 87.7015 329.856 89.4106 329.856 91.4545C329.856 93.4632 329.371 95.2693 328.402 96.8727C327.433 98.4762 325.979 99.736 324.041 100.652C322.103 101.568 319.654 102.027 316.694 102.027Z"/>
<path d="M353.543 102.027C350.054 102.027 346.997 101.243 344.371 99.6743C341.746 98.1061 339.693 95.93 338.213 93.1461C336.733 90.3621 335.993 87.1376 335.993 83.4726C335.993 80.4772 336.486 77.843 337.473 75.57C338.46 73.297 339.799 71.4029 341.491 69.8876C343.182 68.3722 345.103 67.2357 347.252 66.4781C349.402 65.7204 351.622 65.3416 353.913 65.3416C355.992 65.3416 357.992 65.5795 359.912 66.0552C361.833 66.5309 363.727 67.2093 365.595 68.0903C365.383 69.2885 365.234 70.5924 365.145 72.002C365.057 73.4116 365.013 74.8388 365.013 76.2837C364.555 76.4951 363.939 76.6537 363.163 76.7594C362.388 76.8651 361.648 76.918 360.943 76.918C360.908 74.7683 360.608 73.0768 360.044 71.8434C359.481 70.61 358.705 69.7466 357.719 69.2532C356.732 68.7599 355.569 68.5132 354.23 68.5132C352.433 68.5132 350.9 68.892 349.631 69.6497C348.362 70.4074 347.34 71.4205 346.565 72.6892C345.79 73.9578 345.217 75.4026 344.847 77.0237C344.477 78.6447 344.292 80.3363 344.292 82.0983C344.292 85.0585 344.741 87.7367 345.64 90.133C346.539 92.5294 347.869 94.4235 349.631 95.8155C351.393 97.2075 353.578 97.9035 356.186 97.9035C357.631 97.9035 359.119 97.6744 360.652 97.2163C362.185 96.7582 363.674 96.1062 365.119 95.2605C365.401 95.5072 365.656 95.8419 365.886 96.2648C366.115 96.6877 366.264 97.1106 366.335 97.5335C364.679 98.8726 362.82 99.9562 360.758 100.784C358.697 101.613 356.291 102.027 353.543 102.027Z"/>
<path d="M389.704 102.027C386.039 102.027 382.877 101.234 380.216 99.6479C377.555 98.0621 375.494 95.886 374.031 93.1196C372.569 90.3533 371.838 87.1552 371.838 83.5255C371.838 80.7768 372.287 78.2835 373.186 76.0458C374.084 73.808 375.335 71.8874 376.939 70.284C378.542 68.6806 380.427 67.456 382.595 66.6102C384.762 65.7645 387.132 65.3416 389.704 65.3416C393.264 65.3416 396.382 66.0816 399.061 67.5617C401.739 69.0418 403.836 71.121 405.351 73.7992C406.866 76.4775 407.624 79.6138 407.624 83.2083C407.624 85.9218 407.201 88.4239 406.355 90.7145C405.51 93.0051 404.294 94.9962 402.708 96.6877C401.122 98.3792 399.228 99.6919 397.026 100.626C394.823 101.56 392.383 102.027 389.704 102.027ZM390.55 98.6435C392.418 98.6435 394.004 98.0356 395.308 96.8199C396.612 95.6041 397.607 93.9302 398.294 91.7981C398.981 89.6661 399.325 87.2081 399.325 84.4241C399.325 81.4992 398.885 78.8386 398.004 76.4422C397.123 74.0459 395.889 72.1429 394.303 70.7333C392.717 69.3237 390.885 68.6189 388.806 68.6189C387.079 68.6189 385.564 69.1651 384.26 70.2576C382.956 71.35 381.934 72.9094 381.194 74.9357C380.454 76.962 380.084 79.3848 380.084 82.204C380.084 84.3537 380.304 86.424 380.745 88.4151C381.185 90.4062 381.837 92.1682 382.7 93.7011C383.564 95.2341 384.647 96.441 385.951 97.322C387.255 98.203 388.788 98.6435 390.55 98.6435Z"/>
<path d="M427.029 101.974C425.831 98.7316 424.615 95.5512 423.382 92.4325C422.148 89.3137 420.933 86.2919 419.734 83.3669C418.536 80.442 417.373 77.6756 416.246 75.0679C415.47 73.3763 414.862 72.1077 414.422 71.2619C413.981 70.4162 413.559 69.8347 413.153 69.5175C412.748 69.2004 412.264 68.9889 411.7 68.8832C411.559 68.4603 411.462 67.967 411.409 67.4031C411.356 66.8393 411.33 66.2578 411.33 65.6587C411.753 65.694 412.281 65.7204 412.915 65.738C413.55 65.7557 414.237 65.7733 414.977 65.7909C415.717 65.8085 416.431 65.8173 417.118 65.8173C417.805 65.8173 418.395 65.8173 418.889 65.8173C419.875 65.8173 421.074 65.8085 422.483 65.7909C423.893 65.7733 425.285 65.7292 426.659 65.6587C426.624 66.3283 426.58 66.9362 426.527 67.4824C426.474 68.0286 426.395 68.4956 426.289 68.8832C425.267 68.9889 424.536 69.2092 424.095 69.544C423.655 69.8788 423.488 70.4162 423.593 71.1562C423.699 71.8963 424.051 72.9887 424.65 74.4335C425.496 76.4775 426.316 78.5038 427.108 80.5125C427.901 82.5212 428.668 84.5827 429.408 86.6971C430.148 88.8115 430.888 91.0845 431.628 93.5161L430.359 93.5161C431.381 91.2255 432.324 89.0494 433.187 86.9879C434.051 84.9263 434.888 82.8471 435.698 80.7503C436.509 78.6536 437.319 76.4246 438.13 74.0635C438.623 72.5834 438.747 71.3941 438.5 70.4955C438.253 69.5968 437.46 69.0594 436.121 68.8832C435.98 68.4603 435.883 67.9758 435.83 67.4296C435.778 66.8833 435.751 66.2931 435.751 65.6587C436.244 65.694 436.791 65.7204 437.39 65.738C437.989 65.7557 438.614 65.7733 439.266 65.7909C439.918 65.8085 440.509 65.8173 441.037 65.8173C441.883 65.8173 442.817 65.7997 443.839 65.7645C444.861 65.7292 445.706 65.694 446.376 65.6587C446.376 66.2578 446.341 66.8305 446.27 67.3767C446.2 67.9229 446.094 68.4251 445.953 68.8832C444.966 69.0947 444.165 69.6497 443.548 70.5483C442.931 71.4469 442.253 72.8125 441.513 74.645C439.786 79.1205 438.015 83.5784 436.2 88.0186C434.386 92.4589 432.509 96.9873 430.571 101.604C430.077 101.78 429.522 101.886 428.906 101.921C428.289 101.956 427.663 101.974 427.029 101.974Z"/>
<path d="M451.879 65.6587C452.584 65.694 453.447 65.7204 454.469 65.738C455.491 65.7557 456.575 65.7733 457.72 65.7909C458.865 65.8085 459.966 65.8173 461.024 65.8173C462.081 65.8173 462.98 65.8173 463.72 65.8173L463.72 92.7761C463.72 94.2561 463.843 95.3926 464.09 96.1855C464.336 96.9784 464.786 97.5335 465.438 97.8506C466.089 98.1678 466.997 98.3264 468.16 98.3264L466.997 101.551C466.045 101.551 464.847 101.56 463.402 101.577C461.958 101.595 460.477 101.613 458.962 101.63C457.447 101.648 456.046 101.665 454.76 101.683C453.473 101.701 452.513 101.709 451.879 101.709C451.879 101.075 451.905 100.476 451.958 99.9122C452.011 99.3483 452.108 98.8726 452.249 98.485C453.2 98.4145 453.932 98.2295 454.443 97.9299C454.954 97.6304 455.306 97.093 455.5 96.3177C455.694 95.5424 455.791 94.3971 455.791 92.8818L455.791 74.1164C455.791 72.742 455.694 71.6936 455.5 70.9712C455.306 70.2488 454.954 69.7466 454.443 69.4647C453.932 69.1828 453.183 68.9889 452.196 68.8832C452.09 68.4956 452.011 67.9846 451.958 67.3503C451.905 66.7159 451.879 66.1521 451.879 65.6587ZM477.305 91.4017C478.15 91.5426 478.917 91.7453 479.604 92.0096C480.291 92.2739 480.829 92.5822 481.216 92.9346C480.829 94.1328 480.503 95.516 480.238 97.0842C479.974 98.6524 479.754 100.176 479.578 101.657C478.732 101.621 477.613 101.604 476.221 101.604C474.829 101.604 473.331 101.595 471.728 101.577C470.124 101.56 468.547 101.551 466.997 101.551L468.16 98.3264L468.794 98.3264C470.627 98.3264 472.071 98.0797 473.129 97.5863C474.186 97.093 475.023 96.3353 475.64 95.3133C476.256 94.2914 476.811 92.9875 477.305 91.4017ZM474.027 77.5523C473.992 78.4333 473.957 79.3672 473.922 80.3539C473.886 81.3406 473.869 82.4154 473.869 83.5784C473.869 84.7765 473.886 85.8954 473.922 86.935C473.957 87.9746 473.992 88.9173 474.027 89.763C473.287 89.763 472.635 89.7366 472.071 89.6837C471.508 89.6309 470.979 89.5163 470.486 89.3401C470.345 87.7191 469.913 86.6266 469.191 86.0628C468.468 85.499 467.173 85.217 465.305 85.217L461.922 85.217L461.922 82.0983L465.305 82.0983C467.279 82.0983 468.609 81.8164 469.296 81.2525C469.983 80.6887 470.345 79.6315 470.38 78.0809C470.909 77.8695 471.49 77.7285 472.124 77.658C472.759 77.5875 473.393 77.5523 474.027 77.5523ZM478.15 65.6587C478.221 66.5045 478.3 67.4736 478.388 68.5661C478.476 69.6585 478.6 70.7245 478.758 71.7641C478.917 72.8037 479.084 73.7287 479.26 74.5393C478.802 74.7859 478.256 74.9886 477.622 75.1472C476.987 75.3057 476.23 75.385 475.349 75.385C475.208 74.1869 474.899 73.1032 474.424 72.1341C473.948 71.165 473.164 70.3809 472.071 69.7818C470.979 69.1828 469.428 68.8832 467.42 68.8832L461.975 68.8832L463.455 65.8173C466.134 65.8173 468.424 65.8085 470.327 65.7909C472.23 65.7733 473.816 65.7557 475.085 65.738C476.353 65.7204 477.375 65.694 478.15 65.6587Z"/>
<path d="M512.885 102.027C512.074 100.723 511.308 99.4188 510.586 98.1149C509.863 96.8111 509.061 95.4014 508.18 93.8861C507.476 92.688 506.815 91.6484 506.198 90.7674C505.581 89.8864 504.885 89.067 504.11 88.3094C503.335 87.5517 502.366 86.8028 501.203 86.0628L503.317 86.5914C502.366 86.6266 501.52 86.6443 500.78 86.6443C500.04 86.6443 499.247 86.6266 498.401 86.5914L498.666 83.1555C499.194 83.226 499.635 83.2788 499.987 83.3141C500.339 83.3493 500.674 83.3669 500.991 83.3669C502.471 83.3669 503.819 83.1026 505.035 82.574C506.251 82.0454 507.238 81.2349 507.995 80.1425C508.753 79.05 509.132 77.658 509.132 75.9665C509.132 73.7816 508.559 72.046 507.414 70.7598C506.269 69.4735 504.498 68.8304 502.101 68.8304C501.467 68.8304 500.894 68.8744 500.384 68.9625C499.873 69.0506 499.317 69.1828 498.718 69.359L499.088 67.7203L499.088 92.8818C499.088 94.4323 499.194 95.6041 499.406 96.397C499.617 97.1899 499.969 97.7185 500.463 97.9828C500.956 98.2471 501.626 98.4145 502.471 98.485C502.577 98.8021 502.657 99.2691 502.709 99.8858C502.762 100.502 502.789 101.11 502.789 101.709C502.049 101.674 501.168 101.648 500.146 101.63C499.124 101.613 498.111 101.595 497.106 101.577C496.102 101.56 495.247 101.551 494.542 101.551C493.38 101.551 492.137 101.56 490.816 101.577C489.494 101.595 488.305 101.639 487.248 101.709C487.248 101.04 487.274 100.441 487.327 99.9122C487.38 99.3836 487.477 98.9078 487.618 98.485C488.569 98.4145 489.3 98.2383 489.811 97.9564C490.322 97.6744 490.675 97.1546 490.869 96.397C491.062 95.6393 491.159 94.5733 491.159 93.1989L491.159 74.0635C491.159 72.6539 491.062 71.5967 490.869 70.8919C490.675 70.1871 490.322 69.6849 489.811 69.3854C489.3 69.0858 488.552 68.9008 487.565 68.8304C487.459 68.4075 487.38 67.8701 487.327 67.2181C487.274 66.5662 487.248 66.0464 487.248 65.6587C487.812 65.6587 488.516 65.6764 489.362 65.7116C490.208 65.7468 491.089 65.7733 492.005 65.7909C492.921 65.8085 493.732 65.8173 494.437 65.8173C495.529 65.8173 496.683 65.7997 497.899 65.7645C499.115 65.7292 500.278 65.694 501.388 65.6587C502.498 65.6235 503.388 65.6059 504.057 65.6059C507.44 65.6059 510.092 66.0376 512.013 66.901C513.933 67.7643 515.308 68.9096 516.136 70.3369C516.964 71.7641 517.378 73.3763 517.378 75.1736C517.378 77.1118 516.973 78.8121 516.162 80.2746C515.352 81.7371 514.233 82.9264 512.806 83.8427C511.378 84.7589 509.713 85.3756 507.81 85.6928L508.603 85.0056C509.484 85.3932 510.233 85.7985 510.85 86.2214C511.467 86.6443 512.048 87.1464 512.594 87.7279C513.14 88.3094 513.713 89.0406 514.312 89.9216C514.911 90.8026 515.634 91.9303 516.479 93.3047C517.255 94.4676 517.96 95.4014 518.594 96.1062C519.228 96.8111 519.933 97.3308 520.708 97.6656C521.484 98.0004 522.435 98.203 523.563 98.2735C523.563 98.8726 523.536 99.4364 523.483 99.965C523.431 100.494 523.334 101.022 523.193 101.551C521.114 101.551 519.149 101.586 517.299 101.657C515.449 101.727 513.977 101.85 512.885 102.027Z"/>
<path d="M551.907 102.027C549.616 102.027 547.51 101.745 545.59 101.181C543.669 100.617 541.793 99.8417 539.96 98.855C540.242 97.4454 540.418 96.0181 540.489 94.5733C540.559 93.1285 540.594 91.8069 540.594 90.6088C541.299 90.3973 542.075 90.2564 542.92 90.1859C543.766 90.1154 544.577 90.0802 545.352 90.0802C545.493 92.0889 545.784 93.7187 546.224 94.9698C546.665 96.2208 547.361 97.1282 548.312 97.6921C549.264 98.2559 550.532 98.5378 552.118 98.5378C554.197 98.5378 555.695 98.0885 556.611 97.1899C557.527 96.2913 557.986 95.2605 557.986 94.0976C557.986 92.8642 557.563 91.8334 556.717 91.0052C555.871 90.1771 554.796 89.4459 553.492 88.8115C552.189 88.1772 550.805 87.5253 549.343 86.8557C547.88 86.1861 546.488 85.3756 545.167 84.4241C543.845 83.4726 542.771 82.2921 541.942 80.8825C541.114 79.4729 540.7 77.7109 540.7 75.5965C540.7 73.2706 541.22 71.35 542.26 69.8347C543.299 68.3194 544.709 67.1917 546.488 66.4516C548.268 65.7116 550.268 65.3416 552.488 65.3416C553.792 65.3416 555.078 65.4473 556.347 65.6587C557.615 65.8702 558.778 66.1433 559.836 66.4781C560.893 66.8129 561.739 67.2093 562.373 67.6674C562.373 68.9361 562.399 70.284 562.452 71.7112C562.505 73.1385 562.602 74.2926 562.743 75.1736C562.179 75.4907 561.448 75.711 560.549 75.8343C559.651 75.9577 558.849 76.0194 558.144 76.0194C557.827 74.0459 557.395 72.5306 556.849 71.4734C556.303 70.4162 555.633 69.6849 554.84 69.2797C554.047 68.8744 553.122 68.6718 552.065 68.6718C550.62 68.6718 549.44 69.0154 548.524 69.7026C547.607 70.3897 547.149 71.4029 547.149 72.742C547.149 74.0459 547.581 75.1383 548.444 76.0194C549.308 76.9004 550.418 77.6756 551.774 78.3452C553.131 79.0148 554.576 79.702 556.109 80.4068C557.642 81.1116 559.087 81.9309 560.444 82.8648C561.8 83.7986 562.91 84.9527 563.774 86.3271C564.637 87.7015 565.069 89.4106 565.069 91.4545C565.069 93.4632 564.584 95.2693 563.615 96.8727C562.646 98.4762 561.192 99.736 559.254 100.652C557.316 101.568 554.867 102.027 551.907 102.027Z"/>
<path d="M575.488 74.1164C575.488 72.742 575.4 71.6936 575.223 70.9712C575.047 70.2488 574.704 69.7466 574.193 69.4647C573.682 69.1828 572.95 68.9889 571.999 68.8832C571.858 68.4956 571.752 68.0022 571.682 67.4031C571.611 66.804 571.576 66.2226 571.576 65.6587C572.21 65.694 572.994 65.7204 573.928 65.738C574.862 65.7557 575.84 65.7733 576.862 65.7909C577.884 65.8085 578.8 65.8173 579.611 65.8173C580.421 65.8173 581.285 65.8085 582.201 65.7909C583.117 65.7733 584.025 65.7557 584.923 65.738C585.822 65.7204 586.624 65.694 587.328 65.6587C587.328 66.2578 587.311 66.8217 587.275 67.3503C587.24 67.8789 587.135 68.3899 586.958 68.8832C586.007 68.9537 585.276 69.1387 584.765 69.4383C584.254 69.7378 583.901 70.2488 583.707 70.9712C583.514 71.6936 583.417 72.742 583.417 74.1164L583.417 93.1989C583.417 94.5733 583.514 95.6393 583.707 96.397C583.901 97.1546 584.262 97.6744 584.791 97.9564C585.32 98.2383 586.042 98.4145 586.958 98.485C587.099 98.8374 587.196 99.3131 587.249 99.9122C587.302 100.511 587.328 101.11 587.328 101.709C586.412 101.639 585.302 101.595 583.998 101.577C582.694 101.56 581.32 101.551 579.875 101.551C578.43 101.551 576.959 101.56 575.461 101.577C573.963 101.595 572.668 101.639 571.576 101.709C571.576 101.146 571.62 100.564 571.708 99.965C571.796 99.366 571.893 98.8726 571.999 98.485C572.95 98.4145 573.682 98.2383 574.193 97.9564C574.704 97.6744 575.047 97.1546 575.223 96.397C575.4 95.6393 575.488 94.5733 575.488 93.1989L575.488 74.1164Z"/>
<path d="M611.068 98.3264C612.619 98.3264 613.887 98.0973 614.874 97.6392C615.861 97.1811 616.68 96.441 617.332 95.4191C617.984 94.3971 618.556 93.058 619.05 91.4017C619.931 91.5426 620.706 91.7453 621.376 92.0096C622.045 92.2739 622.591 92.5822 623.014 92.9346C622.627 94.1328 622.292 95.516 622.01 97.0842C621.728 98.6524 621.517 100.176 621.376 101.657C620.495 101.621 619.376 101.604 618.019 101.604C616.662 101.604 615.209 101.595 613.658 101.577C612.108 101.56 610.645 101.551 609.271 101.551C608.319 101.551 607.121 101.56 605.676 101.577C604.231 101.595 602.751 101.613 601.236 101.63C599.721 101.648 598.32 101.665 597.034 101.683C595.747 101.701 594.787 101.709 594.153 101.709C594.153 101.075 594.179 100.476 594.232 99.9122C594.285 99.3483 594.382 98.8726 594.523 98.485C595.474 98.4145 596.205 98.2295 596.716 97.9299C597.227 97.6304 597.589 97.093 597.8 96.3177C598.011 95.5424 598.117 94.3971 598.117 92.8818L598.117 74.1164C598.117 72.742 598.02 71.6936 597.826 70.9712C597.633 70.2488 597.271 69.7466 596.743 69.4647C596.214 69.1828 595.474 68.9889 594.523 68.8832C594.382 68.4956 594.294 67.9846 594.258 67.3503C594.223 66.7159 594.206 66.1521 594.206 65.6587C595.122 65.694 596.003 65.7204 596.849 65.738C597.694 65.7557 598.549 65.7733 599.412 65.7909C600.276 65.8085 601.165 65.8173 602.082 65.8173C602.892 65.8173 603.764 65.8085 604.698 65.7909C605.632 65.7733 606.557 65.7557 607.473 65.738C608.39 65.7204 609.2 65.694 609.905 65.6587C609.905 66.2578 609.887 66.8393 609.852 67.4031C609.817 67.967 609.711 68.4603 609.535 68.8832C608.619 68.9537 607.896 69.1387 607.368 69.4383C606.839 69.7378 606.478 70.2488 606.284 70.9712C606.09 71.6936 605.993 72.7773 605.993 74.2221L605.993 92.7761C605.993 94.2561 606.117 95.3926 606.363 96.1855C606.61 96.9784 607.059 97.5335 607.711 97.8506C608.363 98.1678 609.271 98.3264 610.434 98.3264L611.068 98.3264Z"/>
<path d="M645.855 102.027C642.19 102.027 639.028 101.234 636.367 99.6479C633.706 98.0621 631.645 95.886 630.182 93.1196C628.72 90.3533 627.989 87.1552 627.989 83.5255C627.989 80.7768 628.438 78.2835 629.337 76.0458C630.235 73.808 631.486 71.8874 633.09 70.284C634.693 68.6806 636.578 67.456 638.746 66.6102C640.913 65.7645 643.283 65.3416 645.855 65.3416C649.415 65.3416 652.533 66.0816 655.212 67.5617C657.89 69.0418 659.987 71.121 661.502 73.7992C663.017 76.4775 663.775 79.6138 663.775 83.2083C663.775 85.9218 663.352 88.4239 662.506 90.7145C661.661 93.0051 660.445 94.9962 658.859 96.6877C657.273 98.3792 655.379 99.6919 653.177 100.626C650.974 101.56 648.534 102.027 645.855 102.027ZM646.701 98.6435C648.569 98.6435 650.155 98.0356 651.459 96.8199C652.762 95.6041 653.758 93.9302 654.445 91.7981C655.132 89.6661 655.476 87.2081 655.476 84.4241C655.476 81.4992 655.035 78.8386 654.154 76.4422C653.273 74.0459 652.04 72.1429 650.454 70.7333C648.868 69.3237 647.036 68.6189 644.957 68.6189C643.23 68.6189 641.715 69.1651 640.411 70.2576C639.107 71.35 638.085 72.9094 637.345 74.9357C636.605 76.962 636.235 79.3848 636.235 82.204C636.235 84.3537 636.455 86.424 636.896 88.4151C637.336 90.4062 637.988 92.1682 638.851 93.7011C639.715 95.2341 640.798 96.441 642.102 97.322C643.406 98.203 644.939 98.6435 646.701 98.6435Z"/>
<path d="M679.321 68.9889C677.841 68.9889 676.669 69.2532 675.806 69.7818C674.943 70.3104 674.282 71.0593 673.824 72.0284C673.366 72.9975 672.978 74.1869 672.661 75.5965C671.956 75.5965 671.234 75.5612 670.494 75.4907C669.754 75.4203 669.119 75.2441 668.591 74.9621C668.943 73.5173 669.216 71.9403 669.41 70.2312C669.604 68.522 669.701 66.9979 669.701 65.6587C670.934 65.694 672.273 65.7292 673.718 65.7645C675.163 65.7997 676.775 65.8173 678.555 65.8173C680.334 65.8173 682.405 65.8173 684.766 65.8173C686.951 65.8173 688.942 65.8085 690.739 65.7909C692.536 65.7733 694.184 65.7557 695.682 65.738C697.179 65.7204 698.527 65.694 699.725 65.6587C699.725 67.0331 699.796 68.5132 699.937 70.099C700.078 71.6848 700.272 73.3059 700.518 74.9621C699.99 75.1736 699.382 75.341 698.695 75.4643C698.007 75.5877 697.241 75.6317 696.395 75.5965C696.148 73.3763 695.576 71.7201 694.677 70.6276C693.779 69.5352 692.36 68.9889 690.422 68.9889L679.321 68.9889ZM680.643 67.456L688.572 67.456L688.572 93.1989C688.572 94.5733 688.686 95.6393 688.915 96.397C689.144 97.1546 689.594 97.6744 690.263 97.9564C690.933 98.2383 691.92 98.4145 693.224 98.485C693.365 98.8374 693.47 99.3131 693.541 99.9122C693.611 100.511 693.646 101.11 693.646 101.709C692.589 101.639 691.303 101.595 689.788 101.577C688.272 101.56 686.651 101.551 684.924 101.551C683.797 101.551 682.616 101.56 681.383 101.577C680.149 101.595 679.004 101.613 677.947 101.63C676.89 101.648 675.991 101.674 675.251 101.709C675.251 101.146 675.295 100.564 675.383 99.965C675.471 99.366 675.586 98.8726 675.727 98.485C677.031 98.4145 678.044 98.2383 678.766 97.9564C679.489 97.6744 679.982 97.1546 680.246 96.397C680.511 95.6393 680.643 94.5733 680.643 93.1989L680.643 67.456Z"/>
<path d="M709.034 74.1164C709.034 72.742 708.946 71.6936 708.77 70.9712C708.594 70.2488 708.25 69.7466 707.739 69.4647C707.228 69.1828 706.497 68.9889 705.545 68.8832C705.404 68.4956 705.299 68.0022 705.228 67.4031C705.158 66.804 705.122 66.2226 705.122 65.6587C705.757 65.694 706.541 65.7204 707.475 65.738C708.409 65.7557 709.387 65.7733 710.409 65.7909C711.43 65.8085 712.347 65.8173 713.157 65.8173C713.968 65.8173 714.831 65.8085 715.747 65.7909C716.664 65.7733 717.571 65.7557 718.47 65.738C719.368 65.7204 720.17 65.694 720.875 65.6587C720.875 66.2578 720.857 66.8217 720.822 67.3503C720.787 67.8789 720.681 68.3899 720.505 68.8832C719.553 68.9537 718.822 69.1387 718.311 69.4383C717.8 69.7378 717.448 70.2488 717.254 70.9712C717.06 71.6936 716.963 72.742 716.963 74.1164L716.963 93.1989C716.963 94.5733 717.06 95.6393 717.254 96.397C717.448 97.1546 717.809 97.6744 718.338 97.9564C718.866 98.2383 719.589 98.4145 720.505 98.485C720.646 98.8374 720.743 99.3131 720.796 99.9122C720.848 100.511 720.875 101.11 720.875 101.709C719.959 101.639 718.849 101.595 717.545 101.577C716.241 101.56 714.866 101.551 713.422 101.551C711.977 101.551 710.505 101.56 709.008 101.577C707.51 101.595 706.215 101.639 705.122 101.709C705.122 101.146 705.167 100.564 705.255 99.965C705.343 99.366 705.44 98.8726 705.545 98.485C706.497 98.4145 707.228 98.2383 707.739 97.9564C708.25 97.6744 708.594 97.1546 708.77 96.397C708.946 95.6393 709.034 94.5733 709.034 93.1989L709.034 74.1164Z"/>
</g>
</g>
</g>
</svg>
